<?xml version="1.0" encoding="UTF-8" standalone="no"?>
<!-- Generator: Adobe Illustrator 28.3.0, SVG Export Plug-In . SVG Version: 6.00 Build 0)  -->

<svg
   version="1.1"
   id="Layer_1"
   x="0px"
   y="0px"
   viewBox="0 0 135 95"
   xml:space="preserve"
   sodipodi:docname="cauldron-skeleton.svg"
   width="135"
   height="95"
   inkscape:export-filename="cauldron-skeleton.png"
   inkscape:export-xdpi="192"
   inkscape:export-ydpi="192"
   inkscape:version="1.4 (1:1.4+202410161351+e7c3feb100)"
   xmlns:inkscape="http://www.inkscape.org/namespaces/inkscape"
   xmlns:sodipodi="http://sodipodi.sourceforge.net/DTD/sodipodi-0.dtd"
   xmlns:xlink="http://www.w3.org/1999/xlink"
   xmlns="http://www.w3.org/2000/svg"
   xmlns:svg="http://www.w3.org/2000/svg"><defs
   id="defs9"><clipPath
     id="SVGID_00000000180823955876633170000016654116462552103049_">
		<use
   xlink:href="#SVGID_1_"
   style="overflow:visible"
   id="use1" />
	</clipPath><rect
     id="SVGID_1_"
     x="125"
     y="125"
     width="250"
     height="250" /><linearGradient
     inkscape:collect="always"
     xlink:href="#linearGradient21662"
     id="linearGradient30057"
     x1="10.213824"
     y1="221.42242"
     x2="218.95003"
     y2="221.42242"
     gradientUnits="userSpaceOnUse"
     gradientTransform="matrix(0.6691607,0.01747377,-0.01751914,0.67089835,-213.48457,135.15653)" /><linearGradient
     x1="0"
     y1="0"
     x2="1"
     y2="0"
     gradientUnits="userSpaceOnUse"
     gradientTransform="matrix(37.87862,-29.594021,-29.594021,-37.87862,275.46292,136.24821)"
     spreadMethod="pad"
     id="linearGradient21662"><stop
       style="stop-opacity:1;stop-color:#000000"
       offset="0"
       id="stop21652" /><stop
       style="stop-opacity:1;stop-color:#0c542a"
       offset="0.214724"
       id="stop21654" /><stop
       style="stop-opacity:1;stop-color:#25af64"
       offset="0.84662598"
       id="stop21656" /><stop
       style="stop-opacity:1;stop-color:#25af64"
       offset="0.846626"
       id="stop21658" /><stop
       style="stop-opacity:1;stop-color:#25af64"
       offset="1"
       id="stop21660" /></linearGradient><linearGradient
     inkscape:collect="always"
     xlink:href="#linearGradient21662"
     id="linearGradient2708"
     x1="14.381735"
     y1="80.392174"
     x2="49.04929"
     y2="80.392174"
     gradientUnits="userSpaceOnUse" /><linearGradient
     inkscape:collect="always"
     xlink:href="#linearGradient21662"
     id="linearGradient1"
     gradientUnits="userSpaceOnUse"
     x1="14.381735"
     y1="80.392174"
     x2="49.04929"
     y2="80.392174" /><linearGradient
     inkscape:collect="always"
     xlink:href="#linearGradient21662"
     id="linearGradient2"
     gradientUnits="userSpaceOnUse"
     x1="14.381735"
     y1="80.392174"
     x2="49.04929"
     y2="80.392174" /><linearGradient
     inkscape:collect="always"
     xlink:href="#linearGradient21662"
     id="linearGradient3"
     gradientUnits="userSpaceOnUse"
     x1="14.381735"
     y1="80.392174"
     x2="49.04929"
     y2="80.392174" /><linearGradient
     inkscape:collect="always"
     xlink:href="#linearGradient21662"
     id="linearGradient4"
     gradientUnits="userSpaceOnUse"
     x1="14.381735"
     y1="80.392174"
     x2="49.04929"
     y2="80.392174" /><linearGradient
     inkscape:collect="always"
     xlink:href="#linearGradient21662"
     id="linearGradient5"
     gradientUnits="userSpaceOnUse"
     x1="14.381735"
     y1="80.392174"
     x2="49.04929"
     y2="80.392174" /><linearGradient
     inkscape:collect="always"
     xlink:href="#linearGradient21662"
     id="linearGradient6"
     gradientUnits="userSpaceOnUse"
     x1="14.381735"
     y1="80.392174"
     x2="49.04929"
     y2="80.392174" /><linearGradient
     inkscape:collect="always"
     xlink:href="#linearGradient21662"
     id="linearGradient7"
     gradientUnits="userSpaceOnUse"
     x1="14.381735"
     y1="80.392174"
     x2="49.04929"
     y2="80.392174" /><linearGradient
     inkscape:collect="always"
     xlink:href="#linearGradient21662"
     id="linearGradient8"
     gradientUnits="userSpaceOnUse"
     x1="14.381735"
     y1="80.392174"
     x2="49.04929"
     y2="80.392174" /><linearGradient
     inkscape:collect="always"
     xlink:href="#linearGradient21662"
     id="linearGradient9"
     gradientUnits="userSpaceOnUse"
     x1="14.381735"
     y1="80.392174"
     x2="49.04929"
     y2="80.392174" /><linearGradient
     inkscape:collect="always"
     xlink:href="#linearGradient21662"
     id="linearGradient10"
     gradientUnits="userSpaceOnUse"
     x1="14.381735"
     y1="80.392174"
     x2="49.04929"
     y2="80.392174" /><linearGradient
     inkscape:collect="always"
     xlink:href="#linearGradient21662"
     id="linearGradient11"
     gradientUnits="userSpaceOnUse"
     x1="14.381735"
     y1="80.392174"
     x2="49.04929"
     y2="80.392174" /><linearGradient
     inkscape:collect="always"
     xlink:href="#linearGradient21662"
     id="linearGradient12"
     gradientUnits="userSpaceOnUse"
     x1="14.381735"
     y1="80.392174"
     x2="49.04929"
     y2="80.392174" /><linearGradient
     inkscape:collect="always"
     xlink:href="#linearGradient21662"
     id="linearGradient13"
     gradientUnits="userSpaceOnUse"
     x1="14.381735"
     y1="80.392174"
     x2="49.04929"
     y2="80.392174" /><linearGradient
     inkscape:collect="always"
     xlink:href="#linearGradient21662"
     id="linearGradient14"
     gradientUnits="userSpaceOnUse"
     x1="14.381735"
     y1="80.392174"
     x2="49.04929"
     y2="80.392174" /><linearGradient
     inkscape:collect="always"
     xlink:href="#linearGradient21662"
     id="linearGradient15"
     gradientUnits="userSpaceOnUse"
     x1="14.381735"
     y1="80.392174"
     x2="49.04929"
     y2="80.392174" /><linearGradient
     inkscape:collect="always"
     xlink:href="#linearGradient21662"
     id="linearGradient16"
     gradientUnits="userSpaceOnUse"
     x1="14.381735"
     y1="80.392174"
     x2="49.04929"
     y2="80.392174" /><linearGradient
     inkscape:collect="always"
     xlink:href="#linearGradient21662"
     id="linearGradient17"
     gradientUnits="userSpaceOnUse"
     x1="14.381735"
     y1="80.392174"
     x2="49.04929"
     y2="80.392174" /><linearGradient
     inkscape:collect="always"
     xlink:href="#linearGradient21662"
     id="linearGradient18"
     gradientUnits="userSpaceOnUse"
     x1="14.381735"
     y1="80.392174"
     x2="49.04929"
     y2="80.392174" /><linearGradient
     inkscape:collect="always"
     xlink:href="#linearGradient21662"
     id="linearGradient19"
     gradientUnits="userSpaceOnUse"
     x1="14.381735"
     y1="80.392174"
     x2="49.04929"
     y2="80.392174" /><linearGradient
     inkscape:collect="always"
     xlink:href="#linearGradient21662"
     id="linearGradient20"
     gradientUnits="userSpaceOnUse"
     x1="14.381735"
     y1="80.392174"
     x2="49.04929"
     y2="80.392174" /><linearGradient
     inkscape:collect="always"
     xlink:href="#linearGradient21662"
     id="linearGradient21"
     gradientUnits="userSpaceOnUse"
     x1="14.381735"
     y1="80.392174"
     x2="49.04929"
     y2="80.392174" /><linearGradient
     inkscape:collect="always"
     xlink:href="#linearGradient21662"
     id="linearGradient22"
     gradientUnits="userSpaceOnUse"
     x1="14.381735"
     y1="80.392174"
     x2="49.04929"
     y2="80.392174" /><linearGradient
     inkscape:collect="always"
     xlink:href="#linearGradient21662"
     id="linearGradient56"
     gradientUnits="userSpaceOnUse"
     x1="14.381735"
     y1="80.392174"
     x2="49.04929"
     y2="80.392174"
     gradientTransform="matrix(5.9015824,0,0,5.9015824,-29.424502,-459.87505)" /><linearGradient
     inkscape:collect="always"
     xlink:href="#linearGradient21662"
     id="linearGradient57"
     gradientUnits="userSpaceOnUse"
     x1="14.381735"
     y1="80.392174"
     x2="49.04929"
     y2="80.392174"
     gradientTransform="matrix(5.9015824,0,0,5.9015824,-29.424502,-459.87505)" /></defs><sodipodi:namedview
   id="namedview9"
   pagecolor="#505050"
   bordercolor="#eeeeee"
   borderopacity="1"
   inkscape:showpageshadow="0"
   inkscape:pageopacity="0"
   inkscape:pagecheckerboard="0"
   inkscape:deskcolor="#505050"
   inkscape:zoom="3.776"
   inkscape:cx="45.683263"
   inkscape:cy="58.527542"
   inkscape:window-width="1920"
   inkscape:window-height="1128"
   inkscape:window-x="0"
   inkscape:window-y="0"
   inkscape:window-maximized="1"
   inkscape:current-layer="Layer_1" />
<style
   type="text/css"
   id="style1">
	.st0{clip-path:url(#SVGID_00000104686469644450447980000007023994216379603074_);}
	.st1{fill:#160F26;}
	.st2{fill:#FA6863;}
	.st3{fill:#F18046;}
	.st4{fill:#3D95FD;}
	.st5{fill:#0DC09D;}
</style>

<g
   id="g114"
   transform="matrix(0.97938723,0,0,0.97938723,0.09894683,0.29048971)"><g
     id="g44"
     transform="matrix(0.66884345,0,0,0.66884345,146.0747,-149.04025)"
     style="fill:none;stroke:#ffffff;stroke-width:2.99024;stroke-dasharray:none"><path
       style="fill:none;stroke:#ffffff;stroke-width:2.99024;stroke-linecap:round;stroke-dasharray:none"
       d="m -208.18258,245.40203 c -1.14852,1.34315 -1.08289,3.37326 -1.35115,5.06229 -0.34115,2.76171 -0.29206,5.58762 0.67319,8.22888 1.1393,3.87108 2.98259,7.65359 6.1391,10.27078 3.79198,3.54184 8.2401,6.33641 12.43029,9.30118 -0.91535,2.99306 -2.65543,5.87431 -2.30804,9.13471 0.18061,2.677 1.94571,4.91009 3.11856,7.23201 1.50937,2.8256 3.84729,5.54985 3.82514,8.91032 -0.0787,2.49314 -2.48083,4.5082 -1.96562,7.03872 1.67419,2.68138 3.992,4.96942 5.15932,7.96769 0.65556,1.60629 1.4695,3.40539 3.31812,3.87174 2.38126,0.82152 5.41091,1.64045 7.63103,0.0125 0.82635,-1.48261 -1.06902,-2.72955 -2.36736,-2.87342 -1.71199,-0.17589 -3.69466,-0.59568 -4.39228,-2.41244 -0.96281,-2.26721 -2.29358,-4.88743 -1.3576,-7.36922 2.00069,-3.29907 5.15025,-5.72284 7.05316,-9.10416 0.97281,-1.66962 2.43831,-3.35242 4.55042,-3.26353 6.66383,-0.13609 13.02922,2.25844 19.35504,4.0482 6.38637,1.7963 12.67764,4.02096 19.20445,5.25889 3.77887,0.58276 7.72718,-0.18602 11.4197,0.93529 1.63461,0.75428 1.35512,2.9334 2.05535,4.34159 1.1597,3.06423 1.81242,6.5515 4.16823,8.9707 1.76834,1.42588 4.39281,1.36118 6.4399,0.63293 1.20689,-0.70879 -0.0705,-2.295 -0.82735,-2.84018 -0.85353,-0.97431 -2.49109,-0.81793 -3.19991,-1.88904 -0.61703,-3.21399 -0.48223,-6.57875 0.0181,-9.80404 0.2319,-1.63989 2.04068,-2.10159 3.44204,-1.83986 3.30625,0.10127 6.507184,1.46919 9.556743,2.3424 -0.71254,-1.81326 -1.191197,-3.75193 -0.973482,-5.72815 0.02043,-1.69846 0.156881,-3.58482 1.591698,-4.73058 1.830111,-1.86627 3.602321,-3.85815 5.703146,-5.41088 0.575522,0.16274 -0.360827,0.85452 -0.498698,1.09386 -1.908072,2.09201 -4.247863,3.84191 -5.830926,6.20217 -0.467357,1.92903 -0.414927,3.99677 -0.24575,5.96645 0.848332,2.57726 2.170595,5.12487 4.134598,7.01585 1.362239,0.87656 2.75795,2.00764 4.377293,2.2713 1.621297,-0.74843 1.950109,-2.85006 2.551233,-4.35962 1.109132,-3.99969 1.907823,-8.08534 2.71945,-12.15319 0.170206,-1.75995 0.755198,-4.04477 -0.939797,-5.26766 -0.664427,-0.31636 -0.15084,-1.05324 0.361467,-0.52827 2.026382,1.51086 1.306149,4.35901 1.060114,6.49585 -0.853326,4.26646 -1.664773,8.56551 -2.962127,12.72302 -0.117972,0.91577 -1.340297,1.9982 -0.533895,2.72401 2.587513,2.57362 4.812422,5.92113 8.508498,6.96547 1.598272,0.50471 3.800457,1.66945 5.188085,0.14586 1.177659,-1.4017 -0.09755,-3.1877 -0.284323,-4.72092 -0.753955,-3.29433 -2.156738,-6.56045 -1.964376,-9.99106 0.373673,-2.10533 1.654948,-4.11536 1.021666,-6.32262 -0.349919,-2.84568 -1.453347,-5.69952 -3.779084,-7.50012 -2.771541,-2.67603 -6.404794,-4.14933 -10.099361,-5.01092 -3.815611,-1.24593 -6.9919,-3.83431 -10.617491,-5.50364 -6.724661,-3.69962 -14.208401,-5.65169 -21.615831,-7.44474 -8.30324,-1.93229 -16.88884,-1.47941 -25.3436,-1.84797 -8.46313,-0.1352 -16.90366,-0.80082 -25.3617,-1.05107 -4.38737,-0.20312 -8.92121,-0.0523 -12.99753,1.77349 -2.83378,1.235 -5.55113,-0.83445 -8.06653,-1.90121 -3.95435,-2.11512 -8.20653,-4.63235 -11.45036,-7.81607 -1.44093,-1.52832 -1.98381,-3.13498 -2.61394,-4.93556 -0.98461,-2.81345 -1.62386,-5.97312 -1.9462,-9.06999 -0.24149,-1.39646 -0.0764,-3.01443 -0.81326,-4.24264 -0.0219,-0.007 -0.045,-0.0107 -0.0678,-0.007 z"
       id="path33"
       sodipodi:nodetypes="cccccccccccccccccccccccccccccccccccccccccccccccccccccccccscccc"
       inkscape:export-filename="/Users/whx424/Pictures/Illustrations/taxprofiler_v11.png"
       inkscape:export-xdpi="159"
       inkscape:export-ydpi="159" /><g
       id="g43"
       style="fill:none;stroke:#ffffff;stroke-width:0.804758;stroke-dasharray:none"
       inkscape:export-filename="/Users/whx424/Pictures/Illustrations/taxprofiler_v11.png"
       inkscape:export-xdpi="159"
       inkscape:export-ydpi="159"
       transform="matrix(3.7156967,0,0,3.7156967,-249.94205,34.881698)"><g
         id="ellipse33"
         style="fill:none;stroke:#ffffff;stroke-width:0.804758;stroke-dasharray:none"><path
           style="fill:none;stroke:#ffffff;stroke-width:0.804758;stroke-linecap:round;stroke-dasharray:none"
           d="m 17.874563,80.642143 a 1.4964142,1.4176555 0 0 1 -1.496414,1.417656 1.4964142,1.4176555 0 0 1 -1.496414,-1.417656 1.4964142,1.4176555 0 0 1 1.496414,-1.417655 1.4964142,1.4176555 0 0 1 1.496414,1.417655 z"
           id="path93" /><path
           style="fill:none;stroke:#ffffff;stroke-width:0.804758;stroke-linecap:round;stroke-dasharray:none"
           d="m 16.378906,78.724609 c -1.082444,0 -1.998047,0.849787 -1.998047,1.917969 0,1.068182 0.915603,1.917969 1.998047,1.917969 1.082445,0 1.996094,-0.849787 1.996094,-1.917969 0,-1.068182 -0.913649,-1.917969 -1.996094,-1.917969 z m 0,1 c 0.570449,0 0.996094,0.420252 0.996094,0.917969 0,0.497717 -0.425645,0.917969 -0.996094,0.917969 -0.570449,0 -0.998047,-0.420252 -0.998047,-0.917969 0,-0.497717 0.427598,-0.917969 0.998047,-0.917969 z"
           id="path94" /></g><g
         id="ellipse34"
         style="fill:none;stroke:#ffffff;stroke-width:0.804758;stroke-dasharray:none"><path
           style="fill:none;stroke:#ffffff;stroke-width:0.804758;stroke-linecap:round;stroke-dasharray:none"
           d="m 21.012842,80.069572 a 1.4964142,1.4176555 0 0 1 -1.496414,1.417656 1.4964142,1.4176555 0 0 1 -1.496414,-1.417656 1.4964142,1.4176555 0 0 1 1.496414,-1.417655 1.4964142,1.4176555 0 0 1 1.496414,1.417655 z"
           id="path95" /><path
           style="fill:none;stroke:#ffffff;stroke-width:0.804758;stroke-linecap:round;stroke-dasharray:none"
           d="m 19.515625,78.152344 c -1.082445,0 -1.996094,0.849787 -1.996094,1.917968 0,1.068182 0.913649,1.916016 1.996094,1.916016 1.082445,0 1.998047,-0.847834 1.998047,-1.916016 0,-1.068181 -0.915602,-1.917968 -1.998047,-1.917968 z m 0,1 c 0.570449,0 0.998047,0.420251 0.998047,0.917968 0,0.497718 -0.427598,0.916016 -0.998047,0.916016 -0.570449,0 -0.996094,-0.418298 -0.996094,-0.916016 0,-0.497717 0.425645,-0.917968 0.996094,-0.917968 z"
           id="path96" /></g><g
         id="ellipse35"
         style="fill:none;stroke:#ffffff;stroke-width:0.804758;stroke-dasharray:none"><path
           style="fill:none;stroke:#ffffff;stroke-width:0.804758;stroke-linecap:round;stroke-dasharray:none"
           d="m 23.979334,80.818146 a 1.4964142,1.4176555 0 0 1 -1.496414,1.417655 1.4964142,1.4176555 0 0 1 -1.496414,-1.417655 1.4964142,1.4176555 0 0 1 1.496414,-1.417656 1.4964142,1.4176555 0 0 1 1.496414,1.417656 z"
           id="path97" /><path
           style="fill:none;stroke:#ffffff;stroke-width:0.804758;stroke-linecap:round;stroke-dasharray:none"
           d="m 22.482422,78.900391 c -1.082445,0 -1.996094,0.849787 -1.996094,1.917968 0,1.068182 0.913649,1.917969 1.996094,1.917969 1.082445,0 1.996094,-0.849787 1.996094,-1.917969 0,-1.068181 -0.913649,-1.917968 -1.996094,-1.917968 z m 0,1 c 0.570449,0 0.996094,0.420251 0.996094,0.917968 0,0.497718 -0.425645,0.917969 -0.996094,0.917969 -0.570449,0 -0.996094,-0.420251 -0.996094,-0.917969 0,-0.497717 0.425645,-0.917968 0.996094,-0.917968 z"
           id="path98" /></g><g
         id="ellipse36"
         style="fill:none;stroke:#ffffff;stroke-width:0.804758;stroke-dasharray:none"><path
           style="fill:none;stroke:#ffffff;stroke-width:0.804758;stroke-linecap:round;stroke-dasharray:none"
           d="m 27.12455,80.078003 a 1.4964142,1.4176555 0 0 1 -1.496414,1.417655 1.4964142,1.4176555 0 0 1 -1.496415,-1.417655 1.4964142,1.4176555 0 0 1 1.496415,-1.417656 1.4964142,1.4176555 0 0 1 1.496414,1.417656 z"
           id="path99" /><path
           style="fill:none;stroke:#ffffff;stroke-width:0.804758;stroke-linecap:round;stroke-dasharray:none"
           d="m 25.628906,78.160156 c -1.082444,0 -1.998047,0.849787 -1.998047,1.917969 0,1.068182 0.915603,1.917969 1.998047,1.917969 1.082445,0 1.996094,-0.849787 1.996094,-1.917969 0,-1.068182 -0.913649,-1.917969 -1.996094,-1.917969 z m 0,1 c 0.570449,0 0.996094,0.420252 0.996094,0.917969 0,0.497717 -0.425645,0.917969 -0.996094,0.917969 -0.570449,0 -0.998047,-0.420252 -0.998047,-0.917969 0,-0.497717 0.427598,-0.917969 0.998047,-0.917969 z"
           id="path100" /></g><g
         id="ellipse37"
         style="fill:none;stroke:#ffffff;stroke-width:0.804758;stroke-dasharray:none"><path
           style="fill:none;stroke:#ffffff;stroke-width:0.804758;stroke-linecap:round;stroke-dasharray:none"
           d="m 30.23209,80.714775 a 1.4964142,1.4176555 0 0 1 -1.496414,1.417656 1.4964142,1.4176555 0 0 1 -1.496414,-1.417656 1.4964142,1.4176555 0 0 1 1.496414,-1.417655 1.4964142,1.4176555 0 0 1 1.496414,1.417655 z"
           id="path101" /><path
           style="fill:none;stroke:#ffffff;stroke-width:0.804758;stroke-linecap:round;stroke-dasharray:none"
           d="m 28.736328,78.796875 c -1.082445,0 -1.996094,0.849787 -1.996094,1.917969 0,1.068182 0.913649,1.917968 1.996094,1.917968 1.082445,0 1.996094,-0.849786 1.996094,-1.917968 0,-1.068182 -0.913649,-1.917969 -1.996094,-1.917969 z m 0,1 c 0.570449,0 0.996094,0.420252 0.996094,0.917969 0,0.497717 -0.425645,0.917968 -0.996094,0.917968 -0.570449,0 -0.996094,-0.420251 -0.996094,-0.917968 0,-0.497717 0.425645,-0.917969 0.996094,-0.917969 z"
           id="path102" /></g><g
         id="ellipse38"
         style="fill:none;stroke:#ffffff;stroke-width:0.804758;stroke-dasharray:none"><path
           style="fill:none;stroke:#ffffff;stroke-width:0.804758;stroke-linecap:round;stroke-dasharray:none"
           d="m 33.218954,79.995911 a 1.4964142,1.4176555 0 0 1 -1.496414,1.417655 1.4964142,1.4176555 0 0 1 -1.496414,-1.417655 1.4964142,1.4176555 0 0 1 1.496414,-1.417656 1.4964142,1.4176555 0 0 1 1.496414,1.417656 z"
           id="path103" /><path
           style="fill:none;stroke:#ffffff;stroke-width:0.804758;stroke-linecap:round;stroke-dasharray:none"
           d="m 31.722656,78.078125 c -1.082444,0 -1.996093,0.849787 -1.996094,1.917969 0,1.068182 0.91365,1.917968 1.996094,1.917968 1.082445,0 1.996094,-0.849786 1.996094,-1.917968 0,-1.068182 -0.913649,-1.917969 -1.996094,-1.917969 z m 0,1 c 0.570449,0 0.996094,0.420252 0.996094,0.917969 0,0.497717 -0.425645,0.917968 -0.996094,0.917968 -0.570449,0 -0.996094,-0.420251 -0.996094,-0.917968 0,-0.497717 0.425645,-0.917969 0.996094,-0.917969 z"
           id="path104" /></g><g
         id="ellipse39"
         style="fill:none;stroke:#ffffff;stroke-width:0.804758;stroke-dasharray:none"><path
           style="fill:none;stroke:#ffffff;stroke-width:0.804758;stroke-linecap:round;stroke-dasharray:none"
           d="m 36.191761,80.538773 a 1.4964142,1.4176555 0 0 1 -1.496414,1.417655 1.4964142,1.4176555 0 0 1 -1.496414,-1.417655 1.4964142,1.4176555 0 0 1 1.496414,-1.417656 1.4964142,1.4176555 0 0 1 1.496414,1.417656 z"
           id="path105" /><path
           style="fill:none;stroke:#ffffff;stroke-width:0.804758;stroke-linecap:round;stroke-dasharray:none"
           d="m 34.695312,78.621094 c -1.082444,0 -1.996093,0.849787 -1.996093,1.917968 0,1.068182 0.913649,1.917969 1.996093,1.917969 1.082445,0 1.996094,-0.849787 1.996094,-1.917969 0,-1.068181 -0.913649,-1.917968 -1.996094,-1.917968 z m 0,1 c 0.570449,0 0.996094,0.420251 0.996094,0.917968 0,0.497718 -0.425645,0.917969 -0.996094,0.917969 -0.570448,0 -0.996093,-0.420251 -0.996093,-0.917969 0,-0.497717 0.425645,-0.917968 0.996093,-0.917968 z"
           id="path106" /></g><g
         id="ellipse40"
         style="fill:none;stroke:#ffffff;stroke-width:0.804758;stroke-dasharray:none"><path
           style="fill:none;stroke:#ffffff;stroke-width:0.804758;stroke-linecap:round;stroke-dasharray:none"
           d="m 39.330044,79.966202 a 1.4964142,1.4176555 0 0 1 -1.496414,1.417655 1.4964142,1.4176555 0 0 1 -1.496415,-1.417655 1.4964142,1.4176555 0 0 1 1.496415,-1.417656 1.4964142,1.4176555 0 0 1 1.496414,1.417656 z"
           id="path107" /><path
           style="fill:none;stroke:#ffffff;stroke-width:0.804758;stroke-linecap:round;stroke-dasharray:none"
           d="m 37.833984,78.048828 c -1.082444,0 -1.996093,0.849787 -1.996093,1.917969 0,1.068182 0.913649,1.917969 1.996093,1.917969 1.082445,0 1.996094,-0.849787 1.996094,-1.917969 0,-1.068182 -0.913649,-1.917969 -1.996094,-1.917969 z m 0,1 c 0.570449,0 0.996094,0.420252 0.996094,0.917969 0,0.497717 -0.425645,0.917969 -0.996094,0.917969 -0.570448,0 -0.996093,-0.420252 -0.996093,-0.917969 0,-0.497717 0.425645,-0.917969 0.996093,-0.917969 z"
           id="path108" /></g><g
         id="ellipse41"
         style="fill:none;stroke:#ffffff;stroke-width:0.804758;stroke-dasharray:none"><path
           style="fill:none;stroke:#ffffff;stroke-width:0.804758;stroke-linecap:round;stroke-dasharray:none"
           d="m 42.296535,80.714775 a 1.4964142,1.4176555 0 0 1 -1.496414,1.417656 1.4964142,1.4176555 0 0 1 -1.496414,-1.417656 1.4964142,1.4176555 0 0 1 1.496414,-1.417655 1.4964142,1.4176555 0 0 1 1.496414,1.417655 z"
           id="path109" /><path
           style="fill:none;stroke:#ffffff;stroke-width:0.804758;stroke-linecap:round;stroke-dasharray:none"
           d="m 40.800781,78.796875 c -1.082444,0 -1.998047,0.849787 -1.998047,1.917969 0,1.068182 0.915603,1.917968 1.998047,1.917968 1.082445,0 1.996094,-0.849786 1.996094,-1.917968 0,-1.068182 -0.913649,-1.917969 -1.996094,-1.917969 z m 0,1 c 0.570449,0 0.996094,0.420252 0.996094,0.917969 0,0.497717 -0.425645,0.917968 -0.996094,0.917968 -0.570449,0 -0.998047,-0.420251 -0.998047,-0.917968 0,-0.497717 0.427598,-0.917969 0.998047,-0.917969 z"
           id="path110" /></g><g
         id="ellipse42"
         style="fill:none;stroke:#ffffff;stroke-width:0.804758;stroke-dasharray:none"><path
           style="fill:none;stroke:#ffffff;stroke-width:0.804758;stroke-linecap:round;stroke-dasharray:none"
           d="m 45.441753,79.974632 a 1.4964142,1.4176555 0 0 1 -1.496414,1.417656 1.4964142,1.4176555 0 0 1 -1.496414,-1.417656 1.4964142,1.4176555 0 0 1 1.496414,-1.417655 1.4964142,1.4176555 0 0 1 1.496414,1.417655 z"
           id="path111" /><path
           style="fill:none;stroke:#ffffff;stroke-width:0.804758;stroke-linecap:round;stroke-dasharray:none"
           d="m 43.945312,78.056641 c -1.082444,0 -1.996093,0.849787 -1.996093,1.917968 0,1.068182 0.913649,1.917969 1.996093,1.917969 1.082445,0 1.996094,-0.849787 1.996094,-1.917969 0,-1.068181 -0.913649,-1.917968 -1.996094,-1.917968 z m 0,1 c 0.570449,0 0.996094,0.420251 0.996094,0.917968 0,0.497718 -0.425645,0.917969 -0.996094,0.917969 -0.570448,0 -0.996093,-0.420251 -0.996093,-0.917969 0,-0.497717 0.425645,-0.917968 0.996093,-0.917968 z"
           id="path112" /></g><g
         id="ellipse43"
         style="fill:none;stroke:#ffffff;stroke-width:0.804758;stroke-dasharray:none"><path
           style="fill:none;stroke:#ffffff;stroke-width:0.804758;stroke-linecap:round;stroke-dasharray:none"
           d="m 48.54929,80.611404 a 1.4964142,1.4176555 0 0 1 -1.496414,1.417656 1.4964142,1.4176555 0 0 1 -1.496415,-1.417656 1.4964142,1.4176555 0 0 1 1.496415,-1.417655 1.4964142,1.4176555 0 0 1 1.496414,1.417655 z"
           id="path113" /><path
           style="fill:none;stroke:#ffffff;stroke-width:0.804758;stroke-linecap:round;stroke-dasharray:none"
           d="m 47.052734,78.693359 c -1.082444,0 -1.996093,0.849787 -1.996093,1.917969 0,1.068182 0.913649,1.917969 1.996093,1.917969 1.082445,0 1.996094,-0.849787 1.996094,-1.917969 0,-1.068182 -0.913649,-1.917969 -1.996094,-1.917969 z m 0,1 c 0.570449,0 0.996094,0.420252 0.996094,0.917969 0,0.497717 -0.425645,0.917969 -0.996094,0.917969 -0.570448,0 -0.996093,-0.420252 -0.996093,-0.917969 0,-0.497717 0.425645,-0.917969 0.996093,-0.917969 z"
           id="path114" /></g></g></g><g
     id="g1"
     transform="matrix(0.66884345,0,0,0.66884345,146.0747,-149.04025)"><path
       style="fill:url(#linearGradient30057);fill-opacity:1;stroke:none;stroke-width:0.424868;stroke-linecap:round"
       d="m -208.18258,245.40203 c -1.14852,1.34315 -1.08289,3.37326 -1.35115,5.06229 -0.34115,2.76171 -0.29206,5.58762 0.67319,8.22888 1.1393,3.87108 2.98259,7.65359 6.1391,10.27078 3.79198,3.54184 8.2401,6.33641 12.43029,9.30118 -0.91535,2.99306 -2.65543,5.87431 -2.30804,9.13471 0.18061,2.677 1.94571,4.91009 3.11856,7.23201 1.50937,2.8256 3.84729,5.54985 3.82514,8.91032 -0.0787,2.49314 -2.48083,4.5082 -1.96562,7.03872 1.67419,2.68138 3.992,4.96942 5.15932,7.96769 0.65556,1.60629 1.4695,3.40539 3.31812,3.87174 2.38126,0.82152 5.41091,1.64045 7.63103,0.0125 0.82635,-1.48261 -1.06902,-2.72955 -2.36736,-2.87342 -1.71199,-0.17589 -3.69466,-0.59568 -4.39228,-2.41244 -0.96281,-2.26721 -2.29358,-4.88743 -1.3576,-7.36922 2.00069,-3.29907 5.15025,-5.72284 7.05316,-9.10416 0.97281,-1.66962 2.43831,-3.35242 4.55042,-3.26353 6.66383,-0.13609 13.02922,2.25844 19.35504,4.0482 6.38637,1.7963 12.67764,4.02096 19.20445,5.25889 3.77887,0.58276 7.72718,-0.18602 11.4197,0.93529 1.63461,0.75428 1.35512,2.9334 2.05535,4.34159 1.1597,3.06423 1.81242,6.5515 4.16823,8.9707 1.76834,1.42588 4.39281,1.36118 6.4399,0.63293 1.20689,-0.70879 -0.0705,-2.295 -0.82735,-2.84018 -0.85353,-0.97431 -2.49109,-0.81793 -3.19991,-1.88904 -0.61703,-3.21399 -0.48223,-6.57875 0.0181,-9.80404 0.2319,-1.63989 2.04068,-2.10159 3.44204,-1.83986 3.30625,0.10127 6.507184,1.46919 9.556743,2.3424 -0.71254,-1.81326 -1.191197,-3.75193 -0.973482,-5.72815 0.02043,-1.69846 0.156881,-3.58482 1.591698,-4.73058 1.830111,-1.86627 3.602321,-3.85815 5.703146,-5.41088 0.575522,0.16274 -0.360827,0.85452 -0.498698,1.09386 -1.908072,2.09201 -4.247863,3.84191 -5.830926,6.20217 -0.467357,1.92903 -0.414927,3.99677 -0.24575,5.96645 0.848332,2.57726 2.170595,5.12487 4.134598,7.01585 1.362239,0.87656 2.75795,2.00764 4.377293,2.2713 1.621297,-0.74843 1.950109,-2.85006 2.551233,-4.35962 1.109132,-3.99969 1.907823,-8.08534 2.71945,-12.15319 0.170206,-1.75995 0.755198,-4.04477 -0.939797,-5.26766 -0.664427,-0.31636 -0.15084,-1.05324 0.361467,-0.52827 2.026382,1.51086 1.306149,4.35901 1.060114,6.49585 -0.853326,4.26646 -1.664773,8.56551 -2.962127,12.72302 -0.117972,0.91577 -1.340297,1.9982 -0.533895,2.72401 2.587513,2.57362 4.812422,5.92113 8.508498,6.96547 1.598272,0.50471 3.800457,1.66945 5.188085,0.14586 1.177659,-1.4017 -0.09755,-3.1877 -0.284323,-4.72092 -0.753955,-3.29433 -2.156738,-6.56045 -1.964376,-9.99106 0.373673,-2.10533 1.654948,-4.11536 1.021666,-6.32262 -0.349919,-2.84568 -1.453347,-5.69952 -3.779084,-7.50012 -2.771541,-2.67603 -6.404794,-4.14933 -10.099361,-5.01092 -3.815611,-1.24593 -6.9919,-3.83431 -10.617491,-5.50364 -6.724661,-3.69962 -14.208401,-5.65169 -21.615831,-7.44474 -8.30324,-1.93229 -16.88884,-1.47941 -25.3436,-1.84797 -8.46313,-0.1352 -16.90366,-0.80082 -25.3617,-1.05107 -4.38737,-0.20312 -8.92121,-0.0523 -12.99753,1.77349 -2.83378,1.235 -5.55113,-0.83445 -8.06653,-1.90121 -3.95435,-2.11512 -8.20653,-4.63235 -11.45036,-7.81607 -1.44093,-1.52832 -1.98381,-3.13498 -2.61394,-4.93556 -0.98461,-2.81345 -1.62386,-5.97312 -1.9462,-9.06999 -0.24149,-1.39646 -0.0764,-3.01443 -0.81326,-4.24264 -0.0219,-0.007 -0.045,-0.0107 -0.0678,-0.007 z"
       id="path30012"
       sodipodi:nodetypes="cccccccccccccccccccccccccccccccccccccccccccccccccccccccccscccc"
       inkscape:export-filename="/Users/whx424/Pictures/Illustrations/taxprofiler_v11.png"
       inkscape:export-xdpi="159"
       inkscape:export-ydpi="159" /><g
       id="g2682"
       style="fill:url(#linearGradient2708);fill-opacity:1;stroke:url(#linearGradient2708)"
       inkscape:export-filename="/Users/whx424/Pictures/Illustrations/taxprofiler_v11.png"
       inkscape:export-xdpi="159"
       inkscape:export-ydpi="159"
       transform="matrix(3.7156967,0,0,3.7156967,-249.94205,34.881698)"><ellipse
         style="fill:url(#linearGradient1);fill-opacity:1;stroke:url(#linearGradient2);stroke-width:1;stroke-linecap:round;stroke-miterlimit:4;stroke-dasharray:none"
         id="path1218-5"
         cx="16.378149"
         cy="80.642143"
         rx="1.4964142"
         ry="1.4176555" /><ellipse
         style="fill:url(#linearGradient3);fill-opacity:1;stroke:url(#linearGradient4);stroke-width:1;stroke-linecap:round;stroke-miterlimit:4;stroke-dasharray:none"
         id="path1218-8"
         cx="19.516428"
         cy="80.069572"
         rx="1.4964142"
         ry="1.4176555" /><ellipse
         style="fill:url(#linearGradient5);fill-opacity:1;stroke:url(#linearGradient6);stroke-width:1;stroke-linecap:round;stroke-miterlimit:4;stroke-dasharray:none"
         id="path1218-4"
         cx="22.48292"
         cy="80.818146"
         rx="1.4964142"
         ry="1.4176555" /><ellipse
         style="fill:url(#linearGradient7);fill-opacity:1;stroke:url(#linearGradient8);stroke-width:1;stroke-linecap:round;stroke-miterlimit:4;stroke-dasharray:none"
         id="path1218-7"
         cx="25.628136"
         cy="80.078003"
         rx="1.4964142"
         ry="1.4176555" /><ellipse
         style="fill:url(#linearGradient9);fill-opacity:1;stroke:url(#linearGradient10);stroke-width:1;stroke-linecap:round;stroke-miterlimit:4;stroke-dasharray:none"
         id="path1218-1"
         cx="28.735676"
         cy="80.714775"
         rx="1.4964142"
         ry="1.4176555" /><ellipse
         style="fill:url(#linearGradient11);fill-opacity:1;stroke:url(#linearGradient12);stroke-width:1;stroke-linecap:round;stroke-miterlimit:4;stroke-dasharray:none"
         id="path1218-73"
         cx="31.72254"
         cy="79.995911"
         rx="1.4964142"
         ry="1.4176555" /><ellipse
         style="fill:url(#linearGradient13);fill-opacity:1;stroke:url(#linearGradient14);stroke-width:1;stroke-linecap:round;stroke-miterlimit:4;stroke-dasharray:none"
         id="path1218-5-9"
         cx="34.695347"
         cy="80.538773"
         rx="1.4964142"
         ry="1.4176555" /><ellipse
         style="fill:url(#linearGradient15);fill-opacity:1;stroke:url(#linearGradient16);stroke-width:1;stroke-linecap:round;stroke-miterlimit:4;stroke-dasharray:none"
         id="path1218-8-7"
         cx="37.83363"
         cy="79.966202"
         rx="1.4964142"
         ry="1.4176555" /><ellipse
         style="fill:url(#linearGradient17);fill-opacity:1;stroke:url(#linearGradient18);stroke-width:1;stroke-linecap:round;stroke-miterlimit:4;stroke-dasharray:none"
         id="path1218-4-7"
         cx="40.800121"
         cy="80.714775"
         rx="1.4964142"
         ry="1.4176555" /><ellipse
         style="fill:url(#linearGradient19);fill-opacity:1;stroke:url(#linearGradient20);stroke-width:1;stroke-linecap:round;stroke-miterlimit:4;stroke-dasharray:none"
         id="path1218-7-9"
         cx="43.945339"
         cy="79.974632"
         rx="1.4964142"
         ry="1.4176555" /><ellipse
         style="fill:url(#linearGradient21);fill-opacity:1;stroke:url(#linearGradient22);stroke-width:1;stroke-linecap:round;stroke-miterlimit:4;stroke-dasharray:none"
         id="path1218-1-5"
         cx="47.052876"
         cy="80.611404"
         rx="1.4964142"
         ry="1.4176555" /></g></g></g><ellipse
   style="fill:url(#linearGradient56);fill-opacity:1;stroke:url(#linearGradient57);stroke-width:5.90158;stroke-linecap:round;stroke-miterlimit:4;stroke-dasharray:none"
   id="ellipse29"
   cx="121.82204"
   cy="12.711864"
   rx="8.8312111"
   ry="8.3664103" /></svg>
