<?xml version="1.0" encoding="UTF-8" standalone="no"?>
<!-- Generator: Adobe Illustrator 28.3.0, SVG Export Plug-In . SVG Version: 6.00 Build 0)  -->

<svg
   version="1.1"
   id="Layer_1"
   x="0px"
   y="0px"
   viewBox="0 0 280 280"
   xml:space="preserve"
   sodipodi:docname="books-05.svg"
   width="280"
   height="280"
   inkscape:version="1.4 (1:1.4+202410161351+e7c3feb100)"
   inkscape:export-filename="books-05.png"
   inkscape:export-xdpi="51.42857"
   inkscape:export-ydpi="51.42857"
   xmlns:inkscape="http://www.inkscape.org/namespaces/inkscape"
   xmlns:sodipodi="http://sodipodi.sourceforge.net/DTD/sodipodi-0.dtd"
   xmlns="http://www.w3.org/2000/svg"
   xmlns:svg="http://www.w3.org/2000/svg"><defs
   id="defs4" /><sodipodi:namedview
   id="namedview4"
   pagecolor="#ffffff"
   bordercolor="#000000"
   borderopacity="0.25"
   inkscape:showpageshadow="2"
   inkscape:pageopacity="0.0"
   inkscape:pagecheckerboard="0"
   inkscape:deskcolor="#d1d1d1"
   inkscape:zoom="1.1610693"
   inkscape:cx="263.11952"
   inkscape:cy="233.40553"
   inkscape:window-width="1920"
   inkscape:window-height="1128"
   inkscape:window-x="0"
   inkscape:window-y="0"
   inkscape:window-maximized="1"
   inkscape:current-layer="Layer_1" />
<style
   type="text/css"
   id="style1">
	.st0{fill:#0DC09D;}
</style>




<rect
   style="fill:#ffffff;fill-opacity:1;stroke-width:4.84769;stroke-linecap:round;stroke-linejoin:round"
   id="rect436"
   width="16.158953"
   height="16.158953"
   x="140.00008"
   y="-123.84104"
   rx="0"
   ry="0"
   transform="rotate(90)" /><rect
   style="fill:#22ae63;fill-opacity:1;stroke-width:4.84769;stroke-linecap:round;stroke-linejoin:round"
   id="rect172-3"
   width="16.158953"
   height="16.158953"
   x="10.728677"
   y="-156.15903"
   rx="0"
   ry="0"
   transform="rotate(90)" /><rect
   style="fill:#22ae63;fill-opacity:1;stroke-width:4.84769;stroke-linecap:round;stroke-linejoin:round"
   id="rect173-6"
   width="16.158953"
   height="16.158953"
   x="26.887569"
   y="-156.15903"
   rx="0"
   ry="0"
   transform="rotate(90)" /><rect
   style="fill:#22ae63;fill-opacity:1;stroke-width:4.84769;stroke-linecap:round;stroke-linejoin:round"
   id="rect174-0"
   width="16.158953"
   height="16.158953"
   x="43.04641"
   y="-156.15903"
   rx="0"
   ry="0"
   transform="rotate(90)" /><rect
   style="fill:#22ae63;fill-opacity:1;stroke-width:4.84769;stroke-linecap:round;stroke-linejoin:round"
   id="rect175-6"
   width="16.158953"
   height="16.158953"
   x="59.20546"
   y="-156.15903"
   rx="0"
   ry="0"
   transform="rotate(90)" /><rect
   style="fill:#000000;fill-opacity:1;stroke-width:4.84769;stroke-linecap:round;stroke-linejoin:round"
   id="rect176-2"
   width="16.158953"
   height="16.158953"
   x="75.364403"
   y="-156.15903"
   rx="0"
   ry="0"
   transform="rotate(90)" /><rect
   style="fill:#ffffff;fill-opacity:1;stroke-width:4.84769;stroke-linecap:round;stroke-linejoin:round"
   id="rect177-6"
   width="16.158953"
   height="16.158953"
   x="91.523346"
   y="-156.15903"
   rx="0"
   ry="0"
   transform="rotate(90)" /><rect
   style="fill:#ffffff;fill-opacity:1;stroke-width:4.84769;stroke-linecap:round;stroke-linejoin:round"
   id="rect374-87"
   width="16.158953"
   height="16.158953"
   x="107.68219"
   y="-156.15903"
   rx="0"
   ry="0"
   transform="rotate(90)" /><rect
   style="fill:#ffffff;fill-opacity:1;stroke-width:4.84769;stroke-linecap:round;stroke-linejoin:round"
   id="rect379-9"
   width="16.158953"
   height="16.158953"
   x="123.84113"
   y="-156.15903"
   rx="0"
   ry="0"
   transform="rotate(90)" /><rect
   style="fill:#22ae63;fill-opacity:1;stroke-width:4.84769;stroke-linecap:round;stroke-linejoin:round"
   id="rect90"
   width="16.158953"
   height="16.158953"
   x="10.728677"
   y="-139.99998"
   rx="0"
   ry="0"
   transform="rotate(90)" /><rect
   style="fill:#22ae63;fill-opacity:1;stroke-width:4.84769;stroke-linecap:round;stroke-linejoin:round"
   id="rect104"
   width="16.158953"
   height="16.158953"
   x="26.887569"
   y="-139.99998"
   rx="0"
   ry="0"
   transform="rotate(90)" /><rect
   style="fill:#22ae63;fill-opacity:1;stroke-width:4.84769;stroke-linecap:round;stroke-linejoin:round"
   id="rect105"
   width="16.158953"
   height="16.158953"
   x="43.04641"
   y="-139.99998"
   rx="0"
   ry="0"
   transform="rotate(90)" /><rect
   style="fill:#22ae63;fill-opacity:1;stroke-width:4.84769;stroke-linecap:round;stroke-linejoin:round"
   id="rect106"
   width="16.158953"
   height="16.158953"
   x="59.20546"
   y="-139.99998"
   rx="0"
   ry="0"
   transform="rotate(90)" /><rect
   style="fill:#000000;fill-opacity:1;stroke-width:4.84769;stroke-linecap:round;stroke-linejoin:round"
   id="rect107"
   width="16.158953"
   height="16.158953"
   x="75.364403"
   y="-139.99998"
   rx="0"
   ry="0"
   transform="rotate(90)" /><rect
   style="fill:#ffffff;fill-opacity:1;stroke-width:4.84769;stroke-linecap:round;stroke-linejoin:round"
   id="rect108"
   width="16.158953"
   height="16.158953"
   x="91.523346"
   y="-139.99998"
   rx="0"
   ry="0"
   transform="rotate(90)" /><rect
   style="fill:#ffffff;fill-opacity:1;stroke-width:4.84769;stroke-linecap:round;stroke-linejoin:round"
   id="rect114"
   width="16.158953"
   height="16.158953"
   x="107.68219"
   y="-139.99998"
   rx="0"
   ry="0"
   transform="rotate(90)" /><rect
   style="fill:#ffffff;fill-opacity:1;stroke-width:4.84769;stroke-linecap:round;stroke-linejoin:round"
   id="rect115"
   width="16.158953"
   height="16.158953"
   x="123.84113"
   y="-139.99998"
   rx="0"
   ry="0"
   transform="rotate(90)" /><rect
   style="fill:#ffffff;fill-opacity:1;stroke-width:4.84769;stroke-linecap:round;stroke-linejoin:round"
   id="rect248"
   width="16.158953"
   height="16.158953"
   x="156.15881"
   y="-156.15903"
   rx="0"
   ry="0"
   transform="rotate(90)" /><rect
   style="fill:#ffffff;fill-opacity:1;stroke-width:4.84769;stroke-linecap:round;stroke-linejoin:round"
   id="rect249"
   width="16.158953"
   height="16.158953"
   x="172.31776"
   y="-156.15903"
   rx="0"
   ry="0"
   transform="rotate(90)" /><rect
   style="fill:#000000;fill-opacity:1;stroke-width:4.84769;stroke-linecap:round;stroke-linejoin:round"
   id="rect250"
   width="16.158953"
   height="16.158953"
   x="188.47681"
   y="-156.15903"
   rx="0"
   ry="0"
   transform="rotate(90)" /><rect
   style="fill:#ffffff;fill-opacity:1;stroke-width:4.84769;stroke-linecap:round;stroke-linejoin:round"
   id="rect264"
   width="16.158953"
   height="16.158953"
   x="140.00008"
   y="-156.15903"
   rx="0"
   ry="0"
   transform="rotate(90)" /><rect
   style="fill:#ffffff;fill-opacity:1;stroke-width:4.84769;stroke-linecap:round;stroke-linejoin:round"
   id="rect267"
   width="16.158953"
   height="16.158953"
   x="156.15881"
   y="-139.99998"
   rx="0"
   ry="0"
   transform="rotate(90)" /><rect
   style="fill:#ffffff;fill-opacity:1;stroke-width:4.84769;stroke-linecap:round;stroke-linejoin:round"
   id="rect272"
   width="16.158953"
   height="16.158953"
   x="172.31776"
   y="-139.99998"
   rx="0"
   ry="0"
   transform="rotate(90)" /><rect
   style="fill:#000000;fill-opacity:1;stroke-width:4.84769;stroke-linecap:round;stroke-linejoin:round"
   id="rect273"
   width="16.158953"
   height="16.158953"
   x="188.47681"
   y="-139.99998"
   rx="0"
   ry="0"
   transform="rotate(90)" /><rect
   style="fill:#ffffff;fill-opacity:1;stroke-width:4.84769;stroke-linecap:round;stroke-linejoin:round"
   id="rect287"
   width="16.158953"
   height="16.158953"
   x="140.00008"
   y="-139.99998"
   rx="0"
   ry="0"
   transform="rotate(90)" /><rect
   style="fill:#22ae63;fill-opacity:1;stroke-width:4.84769;stroke-linecap:round;stroke-linejoin:round"
   id="rect251"
   width="16.158953"
   height="16.158953"
   x="204.63596"
   y="-156.15903"
   rx="0"
   ry="0"
   transform="rotate(90)" /><rect
   style="fill:#22ae63;fill-opacity:1;stroke-width:4.84769;stroke-linecap:round;stroke-linejoin:round"
   id="rect252"
   width="16.158953"
   height="16.158953"
   x="220.79448"
   y="-156.15903"
   rx="0"
   ry="0"
   transform="rotate(90)" /><rect
   style="fill:#22ae63;fill-opacity:1;stroke-width:4.84769;stroke-linecap:round;stroke-linejoin:round"
   id="rect253"
   width="16.158953"
   height="16.158953"
   x="236.95354"
   y="-156.15903"
   rx="0"
   ry="0"
   transform="rotate(90)" /><rect
   style="fill:#22ae63;fill-opacity:1;stroke-width:4.84769;stroke-linecap:round;stroke-linejoin:round"
   id="rect258"
   width="16.158953"
   height="16.158953"
   x="253.11258"
   y="-156.15903"
   rx="0"
   ry="0"
   transform="rotate(90)" /><rect
   style="fill:#22ae63;fill-opacity:1;stroke-width:4.84769;stroke-linecap:round;stroke-linejoin:round"
   id="rect274"
   width="16.158953"
   height="16.158953"
   x="204.63596"
   y="-139.99998"
   rx="0"
   ry="0"
   transform="rotate(90)" /><rect
   style="fill:#22ae63;fill-opacity:1;stroke-width:4.84769;stroke-linecap:round;stroke-linejoin:round"
   id="rect275"
   width="16.158953"
   height="16.158953"
   x="220.79448"
   y="-139.99998"
   rx="0"
   ry="0"
   transform="rotate(90)" /><rect
   style="fill:#22ae63;fill-opacity:1;stroke-width:4.84769;stroke-linecap:round;stroke-linejoin:round"
   id="rect276"
   width="16.158953"
   height="16.158953"
   x="236.95354"
   y="-139.99998"
   rx="0"
   ry="0"
   transform="rotate(90)" /><rect
   style="fill:#22ae63;fill-opacity:1;stroke-width:4.84769;stroke-linecap:round;stroke-linejoin:round"
   id="rect277"
   width="16.158953"
   height="16.158953"
   x="253.11258"
   y="-139.99998"
   rx="0"
   ry="0"
   transform="rotate(90)" /><rect
   style="fill:#000000;fill-opacity:1;stroke-width:4.84769;stroke-linecap:round;stroke-linejoin:round"
   id="rect318"
   width="16.158953"
   height="16.158953"
   x="75.364403"
   y="-188.47702"
   rx="0"
   ry="0"
   transform="rotate(90)" /><rect
   style="fill:#000000;fill-opacity:1;stroke-width:4.84769;stroke-linecap:round;stroke-linejoin:round"
   id="rect319"
   width="16.158953"
   height="16.158953"
   x="91.523346"
   y="-188.47702"
   rx="0"
   ry="0"
   transform="rotate(90)" /><rect
   style="fill:#ffffff;fill-opacity:1;stroke-width:4.84769;stroke-linecap:round;stroke-linejoin:round"
   id="rect321"
   width="16.158953"
   height="16.158953"
   x="107.68219"
   y="-188.47702"
   rx="0"
   ry="0"
   transform="rotate(90)" /><rect
   style="fill:#ffffff;fill-opacity:1;stroke-width:4.84769;stroke-linecap:round;stroke-linejoin:round"
   id="rect322"
   width="16.158953"
   height="16.158953"
   x="123.84113"
   y="-188.47702"
   rx="0"
   ry="0"
   transform="rotate(90)" /><rect
   style="fill:#000000;fill-opacity:1;stroke-width:4.84769;stroke-linecap:round;stroke-linejoin:round"
   id="rect339"
   width="16.158953"
   height="16.158953"
   x="75.364403"
   y="-172.31798"
   rx="0"
   ry="0"
   transform="rotate(90)" /><rect
   style="fill:#ffffff;fill-opacity:1;stroke-width:4.84769;stroke-linecap:round;stroke-linejoin:round"
   id="rect341"
   width="16.158953"
   height="16.158953"
   x="91.523346"
   y="-172.31798"
   rx="0"
   ry="0"
   transform="rotate(90)" /><rect
   style="fill:#ffffff;fill-opacity:1;stroke-width:4.84769;stroke-linecap:round;stroke-linejoin:round"
   id="rect342"
   width="16.158953"
   height="16.158953"
   x="107.68219"
   y="-172.31798"
   rx="0"
   ry="0"
   transform="rotate(90)" /><rect
   style="fill:#ffffff;fill-opacity:1;stroke-width:4.84769;stroke-linecap:round;stroke-linejoin:round"
   id="rect371"
   width="16.158953"
   height="16.158953"
   x="123.84113"
   y="-172.31798"
   rx="0"
   ry="0"
   transform="rotate(90)" /><rect
   style="fill:#ffffff;fill-opacity:1;stroke-width:4.84769;stroke-linecap:round;stroke-linejoin:round"
   id="rect382"
   width="16.158953"
   height="16.158953"
   x="156.15881"
   y="-188.47702"
   rx="0"
   ry="0"
   transform="rotate(90)" /><rect
   style="fill:#000000;fill-opacity:1;stroke-width:4.84769;stroke-linecap:round;stroke-linejoin:round"
   id="rect386"
   width="16.158953"
   height="16.158953"
   x="172.31776"
   y="-188.47702"
   rx="0"
   ry="0"
   transform="rotate(90)" /><rect
   style="fill:#000000;fill-opacity:1;stroke-width:4.84769;stroke-linecap:round;stroke-linejoin:round"
   id="rect387"
   width="16.158953"
   height="16.158953"
   x="188.47681"
   y="-188.47702"
   rx="0"
   ry="0"
   transform="rotate(90)" /><rect
   style="fill:#ffffff;fill-opacity:1;stroke-width:4.84769;stroke-linecap:round;stroke-linejoin:round"
   id="rect388"
   width="16.158953"
   height="16.158953"
   x="140.00008"
   y="-188.47702"
   rx="0"
   ry="0"
   transform="rotate(90)" /><rect
   style="fill:#ffffff;fill-opacity:1;stroke-width:4.84769;stroke-linecap:round;stroke-linejoin:round"
   id="rect389"
   width="16.158953"
   height="16.158953"
   x="156.15881"
   y="-172.31798"
   rx="0"
   ry="0"
   transform="rotate(90)" /><rect
   style="fill:#ffffff;fill-opacity:1;stroke-width:4.84769;stroke-linecap:round;stroke-linejoin:round"
   id="rect390"
   width="16.158953"
   height="16.158953"
   x="172.31776"
   y="-172.31798"
   rx="0"
   ry="0"
   transform="rotate(90)" /><rect
   style="fill:#000000;fill-opacity:1;stroke-width:4.84769;stroke-linecap:round;stroke-linejoin:round"
   id="rect391"
   width="16.158953"
   height="16.158953"
   x="188.47681"
   y="-172.31798"
   rx="0"
   ry="0"
   transform="rotate(90)" /><rect
   style="fill:#ffffff;fill-opacity:1;stroke-width:4.84769;stroke-linecap:round;stroke-linejoin:round"
   id="rect392"
   width="16.158953"
   height="16.158953"
   x="140.00008"
   y="-172.31798"
   rx="0"
   ry="0"
   transform="rotate(90)" /><rect
   style="fill:#000000;fill-opacity:1;stroke-width:4.84769;stroke-linecap:round;stroke-linejoin:round"
   id="rect398"
   width="16.158953"
   height="16.158953"
   x="91.523346"
   y="-204.63597"
   rx="0"
   ry="0"
   transform="rotate(90)" /><rect
   style="fill:#000000;fill-opacity:1;stroke-width:4.84769;stroke-linecap:round;stroke-linejoin:round"
   id="rect399"
   width="16.158953"
   height="16.158953"
   x="107.68219"
   y="-204.63597"
   rx="0"
   ry="0"
   transform="rotate(90)" /><rect
   style="fill:#000000;fill-opacity:1;stroke-width:4.84769;stroke-linecap:round;stroke-linejoin:round"
   id="rect400"
   width="16.158953"
   height="16.158953"
   x="123.84113"
   y="-204.63597"
   rx="0"
   ry="0"
   transform="rotate(90)" /><rect
   style="fill:#000000;fill-opacity:1;stroke-width:4.84769;stroke-linecap:round;stroke-linejoin:round"
   id="rect405"
   width="16.158953"
   height="16.158953"
   x="156.15881"
   y="-204.63597"
   rx="0"
   ry="0"
   transform="rotate(90)" /><rect
   style="fill:#000000;fill-opacity:1;stroke-width:4.84769;stroke-linecap:round;stroke-linejoin:round"
   id="rect406"
   width="16.158953"
   height="16.158953"
   x="172.31776"
   y="-204.63597"
   rx="0"
   ry="0"
   transform="rotate(90)" /><rect
   style="fill:#000000;fill-opacity:1;stroke-width:4.84769;stroke-linecap:round;stroke-linejoin:round"
   id="rect408"
   width="16.158953"
   height="16.158953"
   x="140.00008"
   y="-204.63597"
   rx="0"
   ry="0"
   transform="rotate(90)" /><rect
   style="fill:#000000;fill-opacity:1;stroke-width:4.84769;stroke-linecap:round;stroke-linejoin:round"
   id="rect410"
   width="16.158953"
   height="16.158953"
   x="91.523346"
   y="-91.523048"
   rx="0"
   ry="0"
   transform="rotate(90)" /><rect
   style="fill:#000000;fill-opacity:1;stroke-width:4.84769;stroke-linecap:round;stroke-linejoin:round"
   id="rect411"
   width="16.158953"
   height="16.158953"
   x="107.68219"
   y="-91.523048"
   rx="0"
   ry="0"
   transform="rotate(90)" /><rect
   style="fill:#000000;fill-opacity:1;stroke-width:4.84769;stroke-linecap:round;stroke-linejoin:round"
   id="rect412"
   width="16.158953"
   height="16.158953"
   x="123.84113"
   y="-91.523048"
   rx="0"
   ry="0"
   transform="rotate(90)" /><rect
   style="fill:#000000;fill-opacity:1;stroke-width:4.84769;stroke-linecap:round;stroke-linejoin:round"
   id="rect417"
   width="16.158953"
   height="16.158953"
   x="156.15881"
   y="-91.523048"
   rx="0"
   ry="0"
   transform="rotate(90)" /><rect
   style="fill:#000000;fill-opacity:1;stroke-width:4.84769;stroke-linecap:round;stroke-linejoin:round"
   id="rect418"
   width="16.158953"
   height="16.158953"
   x="172.31776"
   y="-91.523048"
   rx="0"
   ry="0"
   transform="rotate(90)" /><rect
   style="fill:#000000;fill-opacity:1;stroke-width:4.84769;stroke-linecap:round;stroke-linejoin:round"
   id="rect420"
   width="16.158953"
   height="16.158953"
   x="140.00008"
   y="-91.523048"
   rx="0"
   ry="0"
   transform="rotate(90)" /><rect
   style="fill:#000000;fill-opacity:1;stroke-width:4.84769;stroke-linecap:round;stroke-linejoin:round"
   id="rect425"
   width="16.158953"
   height="16.158953"
   x="75.364403"
   y="-123.84104"
   rx="0"
   ry="0"
   transform="rotate(90)" /><rect
   style="fill:#ffffff;fill-opacity:1;stroke-width:4.84769;stroke-linecap:round;stroke-linejoin:round"
   id="rect426"
   width="16.158953"
   height="16.158953"
   x="91.523346"
   y="-123.84104"
   rx="0"
   ry="0"
   transform="rotate(90)" /><rect
   style="fill:#ffffff;fill-opacity:1;stroke-width:4.84769;stroke-linecap:round;stroke-linejoin:round"
   id="rect427"
   width="16.158953"
   height="16.158953"
   x="107.68219"
   y="-123.84104"
   rx="0"
   ry="0"
   transform="rotate(90)" /><rect
   style="fill:#ffffff;fill-opacity:1;stroke-width:4.84769;stroke-linecap:round;stroke-linejoin:round"
   id="rect428"
   width="16.158953"
   height="16.158953"
   x="123.84113"
   y="-123.84104"
   rx="0"
   ry="0"
   transform="rotate(90)" /><rect
   style="fill:#000000;fill-opacity:1;stroke-width:4.84769;stroke-linecap:round;stroke-linejoin:round"
   id="rect429"
   width="16.158953"
   height="16.158953"
   x="75.364403"
   y="-107.68199"
   rx="0"
   ry="0"
   transform="rotate(90)" /><rect
   style="fill:#000000;fill-opacity:1;stroke-width:4.84769;stroke-linecap:round;stroke-linejoin:round"
   id="rect430"
   width="16.158953"
   height="16.158953"
   x="91.523346"
   y="-107.68199"
   rx="0"
   ry="0"
   transform="rotate(90)" /><rect
   style="fill:#ffffff;fill-opacity:1;stroke-width:4.84769;stroke-linecap:round;stroke-linejoin:round"
   id="rect431"
   width="16.158953"
   height="16.158953"
   x="107.68219"
   y="-107.68199"
   rx="0"
   ry="0"
   transform="rotate(90)" /><rect
   style="fill:#ffffff;fill-opacity:1;stroke-width:4.84769;stroke-linecap:round;stroke-linejoin:round"
   id="rect432"
   width="16.158953"
   height="16.158953"
   x="123.84113"
   y="-107.68199"
   rx="0"
   ry="0"
   transform="rotate(90)" /><rect
   style="fill:#ffffff;fill-opacity:1;stroke-width:4.84769;stroke-linecap:round;stroke-linejoin:round"
   id="rect433"
   width="16.158953"
   height="16.158953"
   x="156.15881"
   y="-123.84104"
   rx="0"
   ry="0"
   transform="rotate(90)" /><rect
   style="fill:#ffffff;fill-opacity:1;stroke-width:4.84769;stroke-linecap:round;stroke-linejoin:round"
   id="rect434"
   width="16.158953"
   height="16.158953"
   x="172.31776"
   y="-123.84104"
   rx="0"
   ry="0"
   transform="rotate(90)" /><rect
   style="fill:#000000;fill-opacity:1;stroke-width:4.84769;stroke-linecap:round;stroke-linejoin:round"
   id="rect435"
   width="16.158953"
   height="16.158953"
   x="188.47681"
   y="-123.84104"
   rx="0"
   ry="0"
   transform="rotate(90)" /><rect
   style="fill:#ffffff;fill-opacity:1;stroke-width:4.84769;stroke-linecap:round;stroke-linejoin:round"
   id="rect437"
   width="16.158953"
   height="16.158953"
   x="156.15881"
   y="-107.68199"
   rx="0"
   ry="0"
   transform="rotate(90)" /><rect
   style="fill:#000000;fill-opacity:1;stroke-width:4.84769;stroke-linecap:round;stroke-linejoin:round"
   id="rect438"
   width="16.158953"
   height="16.158953"
   x="172.31776"
   y="-107.68199"
   rx="0"
   ry="0"
   transform="rotate(90)" /><rect
   style="fill:#000000;fill-opacity:1;stroke-width:4.84769;stroke-linecap:round;stroke-linejoin:round"
   id="rect439"
   width="16.158953"
   height="16.158953"
   x="188.47681"
   y="-107.68199"
   rx="0"
   ry="0"
   transform="rotate(90)" /><rect
   style="fill:#ffffff;fill-opacity:1;stroke-width:4.84769;stroke-linecap:round;stroke-linejoin:round"
   id="rect440"
   width="16.158953"
   height="16.158953"
   x="140.00008"
   y="-107.68199"
   rx="0"
   ry="0"
   transform="rotate(90)" /></svg>
