<?xml version="1.0" encoding="UTF-8" standalone="no"?>
<!-- Generator: Adobe Illustrator 28.3.0, SVG Export Plug-In . SVG Version: 6.00 Build 0)  -->

<svg
   version="1.1"
   id="Layer_1"
   x="0px"
   y="0px"
   viewBox="0 0 280 280"
   xml:space="preserve"
   sodipodi:docname="books-01.svg"
   width="280"
   height="280"
   inkscape:version="1.4 (1:1.4+202410161351+e7c3feb100)"
   inkscape:export-filename="books-01.png"
   inkscape:export-xdpi="51.42857"
   inkscape:export-ydpi="51.42857"
   xmlns:inkscape="http://www.inkscape.org/namespaces/inkscape"
   xmlns:sodipodi="http://sodipodi.sourceforge.net/DTD/sodipodi-0.dtd"
   xmlns="http://www.w3.org/2000/svg"
   xmlns:svg="http://www.w3.org/2000/svg"><defs
   id="defs4" /><sodipodi:namedview
   id="namedview4"
   pagecolor="#ffffff"
   bordercolor="#000000"
   borderopacity="0.25"
   inkscape:showpageshadow="2"
   inkscape:pageopacity="0.0"
   inkscape:pagecheckerboard="0"
   inkscape:deskcolor="#d1d1d1"
   inkscape:zoom="1.1610693"
   inkscape:cx="332.8828"
   inkscape:cy="205.84473"
   inkscape:window-width="1920"
   inkscape:window-height="1128"
   inkscape:window-x="0"
   inkscape:window-y="0"
   inkscape:window-maximized="1"
   inkscape:current-layer="Layer_1" />
<style
   type="text/css"
   id="style1">
	.st0{fill:#0DC09D;}
</style>




<rect
   style="fill:#22ae63;fill-opacity:1;stroke-width:4.84769;stroke-linecap:round;stroke-linejoin:round"
   id="rect162"
   width="16.158953"
   height="16.158953"
   x="-269.27148"
   y="-156.15903"
   rx="0"
   ry="0"
   transform="matrix(0,-1,-1,0,0,0)" /><rect
   style="fill:#22ae63;fill-opacity:1;stroke-width:4.84769;stroke-linecap:round;stroke-linejoin:round"
   id="rect163"
   width="16.158953"
   height="16.158953"
   x="-253.11255"
   y="-156.15903"
   rx="0"
   ry="0"
   transform="matrix(0,-1,-1,0,0,0)" /><rect
   style="fill:#22ae63;fill-opacity:1;stroke-width:4.84769;stroke-linecap:round;stroke-linejoin:round"
   id="rect164"
   width="16.158953"
   height="16.158953"
   x="-236.95349"
   y="-156.15903"
   rx="0"
   ry="0"
   transform="matrix(0,-1,-1,0,0,0)" /><rect
   style="fill:#22ae63;fill-opacity:1;stroke-width:4.84769;stroke-linecap:round;stroke-linejoin:round"
   id="rect165"
   width="16.158953"
   height="16.158953"
   x="-220.79433"
   y="-156.15903"
   rx="0"
   ry="0"
   transform="matrix(0,-1,-1,0,0,0)" /><rect
   style="fill:#22ae63;fill-opacity:1;stroke-width:4.84769;stroke-linecap:round;stroke-linejoin:round"
   id="rect166"
   width="16.158953"
   height="16.158953"
   x="-269.27148"
   y="-139.99998"
   rx="0"
   ry="0"
   transform="matrix(0,-1,-1,0,0,0)" /><rect
   style="fill:#22ae63;fill-opacity:1;stroke-width:4.84769;stroke-linecap:round;stroke-linejoin:round"
   id="rect167"
   width="16.158953"
   height="16.158953"
   x="-253.11255"
   y="-139.99998"
   rx="0"
   ry="0"
   transform="matrix(0,-1,-1,0,0,0)" /><rect
   style="fill:#22ae63;fill-opacity:1;stroke-width:4.84769;stroke-linecap:round;stroke-linejoin:round"
   id="rect168"
   width="16.158953"
   height="16.158953"
   x="-236.95349"
   y="-139.99998"
   rx="0"
   ry="0"
   transform="matrix(0,-1,-1,0,0,0)" /><rect
   style="fill:#22ae63;fill-opacity:1;stroke-width:4.84769;stroke-linecap:round;stroke-linejoin:round"
   id="rect169"
   width="16.158953"
   height="16.158953"
   x="-220.79433"
   y="-139.99998"
   rx="0"
   ry="0"
   transform="matrix(0,-1,-1,0,0,0)" /><rect
   style="fill:#000000;fill-opacity:1;stroke:none;stroke-width:4.84769;stroke-linecap:round;stroke-linejoin:round;stroke-opacity:1"
   id="rect170"
   width="16.158953"
   height="16.158953"
   x="-204.63579"
   y="-156.15903"
   rx="0"
   ry="0"
   transform="matrix(0,-1,-1,0,0,0)" /><rect
   style="fill:#000000;fill-opacity:1;stroke:none;stroke-width:4.84769;stroke-linecap:round;stroke-linejoin:round;stroke-opacity:1"
   id="rect171"
   width="16.158953"
   height="16.158953"
   x="-188.47694"
   y="-156.15903"
   rx="0"
   ry="0"
   transform="matrix(0,-1,-1,0,0,0)" /><rect
   style="fill:#000000;fill-opacity:1;stroke:none;stroke-width:4.84769;stroke-linecap:round;stroke-linejoin:round;stroke-opacity:1"
   id="rect172"
   width="16.158953"
   height="16.158953"
   x="-204.63579"
   y="-139.99998"
   rx="0"
   ry="0"
   transform="matrix(0,-1,-1,0,0,0)" /><rect
   style="fill:#000000;fill-opacity:1;stroke:none;stroke-width:4.84769;stroke-linecap:round;stroke-linejoin:round;stroke-opacity:1"
   id="rect173"
   width="16.158953"
   height="16.158953"
   x="-188.47694"
   y="-139.99998"
   rx="0"
   ry="0"
   transform="matrix(0,-1,-1,0,0,0)" /><rect
   style="fill:#000000;fill-opacity:1;stroke:none;stroke-width:4.84769;stroke-linecap:round;stroke-linejoin:round;stroke-opacity:1"
   id="rect174"
   width="16.158953"
   height="16.158953"
   x="-204.63579"
   y="-172.31798"
   rx="0"
   ry="0"
   transform="matrix(0,-1,-1,0,0,0)" /><rect
   style="fill:#000000;fill-opacity:1;stroke:none;stroke-width:4.84769;stroke-linecap:round;stroke-linejoin:round;stroke-opacity:1"
   id="rect175"
   width="16.158953"
   height="16.158953"
   x="-188.47694"
   y="-172.31798"
   rx="0"
   ry="0"
   transform="matrix(0,-1,-1,0,0,0)" /><rect
   style="fill:#000000;fill-opacity:1;stroke:none;stroke-width:4.84769;stroke-linecap:round;stroke-linejoin:round;stroke-opacity:1"
   id="rect176"
   width="16.158953"
   height="16.158953"
   x="-204.63579"
   y="-188.47691"
   rx="0"
   ry="0"
   transform="matrix(0,-1,-1,0,0,0)" /><rect
   style="fill:#000000;fill-opacity:1;stroke:none;stroke-width:4.84769;stroke-linecap:round;stroke-linejoin:round;stroke-opacity:1"
   id="rect177"
   width="16.158953"
   height="16.158953"
   x="-188.47694"
   y="-188.47691"
   rx="0"
   ry="0"
   transform="matrix(0,-1,-1,0,0,0)" /><rect
   style="fill:#000000;fill-opacity:1;stroke:none;stroke-width:4.84769;stroke-linecap:round;stroke-linejoin:round;stroke-opacity:1"
   id="rect178"
   width="16.158953"
   height="16.158953"
   x="-204.63579"
   y="-123.84104"
   rx="0"
   ry="0"
   transform="matrix(0,-1,-1,0,0,0)" /><rect
   style="fill:#000000;fill-opacity:1;stroke:none;stroke-width:4.84769;stroke-linecap:round;stroke-linejoin:round;stroke-opacity:1"
   id="rect179"
   width="16.158953"
   height="16.158953"
   x="-188.47694"
   y="-123.84104"
   rx="0"
   ry="0"
   transform="matrix(0,-1,-1,0,0,0)" /><rect
   style="fill:#000000;fill-opacity:1;stroke:none;stroke-width:4.84769;stroke-linecap:round;stroke-linejoin:round;stroke-opacity:1"
   id="rect180"
   width="16.158953"
   height="16.158953"
   x="-204.63579"
   y="-107.68209"
   rx="0"
   ry="0"
   transform="matrix(0,-1,-1,0,0,0)" /><rect
   style="fill:#000000;fill-opacity:1;stroke:none;stroke-width:4.84769;stroke-linecap:round;stroke-linejoin:round;stroke-opacity:1"
   id="rect181"
   width="16.158953"
   height="16.158953"
   x="-188.47694"
   y="-107.68209"
   rx="0"
   ry="0"
   transform="matrix(0,-1,-1,0,0,0)" /><rect
   style="fill:#22ae63;fill-opacity:1;stroke-width:4.84769;stroke-linecap:round;stroke-linejoin:round"
   id="rect182"
   width="16.158953"
   height="16.158953"
   x="-43.046783"
   y="-156.15903"
   rx="0"
   ry="0"
   transform="matrix(0,-1,-1,0,0,0)" /><rect
   style="fill:#22ae63;fill-opacity:1;stroke-width:4.84769;stroke-linecap:round;stroke-linejoin:round"
   id="rect183"
   width="16.158953"
   height="16.158953"
   x="-26.887941"
   y="-156.15903"
   rx="0"
   ry="0"
   transform="matrix(0,-1,-1,0,0,0)" /><rect
   style="fill:#22ae63;fill-opacity:1;stroke-width:4.84769;stroke-linecap:round;stroke-linejoin:round"
   id="rect186"
   width="16.158953"
   height="16.158953"
   x="-59.205471"
   y="-156.15903"
   rx="0"
   ry="0"
   transform="matrix(0,-1,-1,0,0,0)" /><rect
   style="fill:#22ae63;fill-opacity:1;stroke-width:4.84769;stroke-linecap:round;stroke-linejoin:round"
   id="rect187"
   width="16.158953"
   height="16.158953"
   x="-43.046783"
   y="-139.99998"
   rx="0"
   ry="0"
   transform="matrix(0,-1,-1,0,0,0)" /><rect
   style="fill:#22ae63;fill-opacity:1;stroke-width:4.84769;stroke-linecap:round;stroke-linejoin:round"
   id="rect188"
   width="16.158953"
   height="16.158953"
   x="-26.887941"
   y="-139.99998"
   rx="0"
   ry="0"
   transform="matrix(0,-1,-1,0,0,0)" /><rect
   style="fill:#22ae63;fill-opacity:1;stroke-width:4.84769;stroke-linecap:round;stroke-linejoin:round"
   id="rect191"
   width="16.158953"
   height="16.158953"
   x="-59.205471"
   y="-139.99998"
   rx="0"
   ry="0"
   transform="matrix(0,-1,-1,0,0,0)" /><rect
   style="fill:#22ae63;fill-opacity:1;stroke-width:4.84769;stroke-linecap:round;stroke-linejoin:round"
   id="rect192"
   width="16.158953"
   height="16.158953"
   x="-75.364464"
   y="-156.15903"
   rx="0"
   ry="0"
   transform="matrix(0,-1,-1,0,0,0)" /><rect
   style="fill:#22ae63;fill-opacity:1;stroke-width:4.84769;stroke-linecap:round;stroke-linejoin:round"
   id="rect193"
   width="16.158953"
   height="16.158953"
   x="-75.364464"
   y="-139.99998"
   rx="0"
   ry="0"
   transform="matrix(0,-1,-1,0,0,0)" /><rect
   style="fill:#000000;fill-opacity:1;stroke:none;stroke-width:4.84769;stroke-linecap:round;stroke-linejoin:round;stroke-opacity:1"
   id="rect194"
   width="16.158953"
   height="16.158953"
   x="-107.68224"
   y="-156.15903"
   rx="0"
   ry="0"
   transform="matrix(0,-1,-1,0,0,0)" /><rect
   style="fill:#000000;fill-opacity:1;stroke:none;stroke-width:4.84769;stroke-linecap:round;stroke-linejoin:round;stroke-opacity:1"
   id="rect195"
   width="16.158953"
   height="16.158953"
   x="-91.523354"
   y="-156.15903"
   rx="0"
   ry="0"
   transform="matrix(0,-1,-1,0,0,0)" /><rect
   style="fill:#000000;fill-opacity:1;stroke:none;stroke-width:4.84769;stroke-linecap:round;stroke-linejoin:round;stroke-opacity:1"
   id="rect196"
   width="16.158953"
   height="16.158953"
   x="-107.68224"
   y="-139.99998"
   rx="0"
   ry="0"
   transform="matrix(0,-1,-1,0,0,0)" /><rect
   style="fill:#000000;fill-opacity:1;stroke:none;stroke-width:4.84769;stroke-linecap:round;stroke-linejoin:round;stroke-opacity:1"
   id="rect197"
   width="16.158953"
   height="16.158953"
   x="-91.523354"
   y="-139.99998"
   rx="0"
   ry="0"
   transform="matrix(0,-1,-1,0,0,0)" /><rect
   style="fill:#000000;fill-opacity:1;stroke:none;stroke-width:4.84769;stroke-linecap:round;stroke-linejoin:round;stroke-opacity:1"
   id="rect198"
   width="16.158953"
   height="16.158953"
   x="-107.68224"
   y="-172.31798"
   rx="0"
   ry="0"
   transform="matrix(0,-1,-1,0,0,0)" /><rect
   style="fill:#000000;fill-opacity:1;stroke:none;stroke-width:4.84769;stroke-linecap:round;stroke-linejoin:round;stroke-opacity:1"
   id="rect199"
   width="16.158953"
   height="16.158953"
   x="-91.523354"
   y="-172.31798"
   rx="0"
   ry="0"
   transform="matrix(0,-1,-1,0,0,0)" /><rect
   style="fill:#000000;fill-opacity:1;stroke:none;stroke-width:4.84769;stroke-linecap:round;stroke-linejoin:round;stroke-opacity:1"
   id="rect200"
   width="16.158953"
   height="16.158953"
   x="-107.68224"
   y="-188.47691"
   rx="0"
   ry="0"
   transform="matrix(0,-1,-1,0,0,0)" /><rect
   style="fill:#000000;fill-opacity:1;stroke:none;stroke-width:4.84769;stroke-linecap:round;stroke-linejoin:round;stroke-opacity:1"
   id="rect201"
   width="16.158953"
   height="16.158953"
   x="-91.523354"
   y="-188.47691"
   rx="0"
   ry="0"
   transform="matrix(0,-1,-1,0,0,0)" /><rect
   style="fill:#000000;fill-opacity:1;stroke:none;stroke-width:4.84769;stroke-linecap:round;stroke-linejoin:round;stroke-opacity:1"
   id="rect202"
   width="16.158953"
   height="16.158953"
   x="-107.68224"
   y="-123.84104"
   rx="0"
   ry="0"
   transform="matrix(0,-1,-1,0,0,0)" /><rect
   style="fill:#000000;fill-opacity:1;stroke:none;stroke-width:4.84769;stroke-linecap:round;stroke-linejoin:round;stroke-opacity:1"
   id="rect203"
   width="16.158953"
   height="16.158953"
   x="-91.523354"
   y="-123.84104"
   rx="0"
   ry="0"
   transform="matrix(0,-1,-1,0,0,0)" /><rect
   style="fill:#000000;fill-opacity:1;stroke:none;stroke-width:4.84769;stroke-linecap:round;stroke-linejoin:round;stroke-opacity:1"
   id="rect204"
   width="16.158953"
   height="16.158953"
   x="-107.68224"
   y="-107.68209"
   rx="0"
   ry="0"
   transform="matrix(0,-1,-1,0,0,0)" /><rect
   style="fill:#000000;fill-opacity:1;stroke:none;stroke-width:4.84769;stroke-linecap:round;stroke-linejoin:round;stroke-opacity:1"
   id="rect205"
   width="16.158953"
   height="16.158953"
   x="-91.523354"
   y="-107.68209"
   rx="0"
   ry="0"
   transform="matrix(0,-1,-1,0,0,0)" /></svg>
