<?xml version="1.0" encoding="UTF-8" standalone="no"?>
<!-- Generator: Adobe Illustrator 28.3.0, SVG Export Plug-In . SVG Version: 6.00 Build 0)  -->

<svg
   version="1.1"
   id="Layer_1"
   x="0px"
   y="0px"
   viewBox="0 0 280 280"
   xml:space="preserve"
   sodipodi:docname="books-02.svg"
   width="280"
   height="280"
   inkscape:version="1.4 (1:1.4+202410161351+e7c3feb100)"
   inkscape:export-filename="books-02.png"
   inkscape:export-xdpi="51.42857"
   inkscape:export-ydpi="51.42857"
   xmlns:inkscape="http://www.inkscape.org/namespaces/inkscape"
   xmlns:sodipodi="http://sodipodi.sourceforge.net/DTD/sodipodi-0.dtd"
   xmlns="http://www.w3.org/2000/svg"
   xmlns:svg="http://www.w3.org/2000/svg"><defs
   id="defs4" /><sodipodi:namedview
   id="namedview4"
   pagecolor="#ffffff"
   bordercolor="#000000"
   borderopacity="0.25"
   inkscape:showpageshadow="2"
   inkscape:pageopacity="0.0"
   inkscape:pagecheckerboard="0"
   inkscape:deskcolor="#d1d1d1"
   inkscape:zoom="2.3221386"
   inkscape:cx="162.56566"
   inkscape:cy="164.07289"
   inkscape:window-width="1920"
   inkscape:window-height="1128"
   inkscape:window-x="0"
   inkscape:window-y="0"
   inkscape:window-maximized="1"
   inkscape:current-layer="Layer_1" />
<style
   type="text/css"
   id="style1">
	.st0{fill:#0DC09D;}
</style>




<rect
   style="fill:#22ae63;fill-opacity:1;stroke-width:4.84769;stroke-linecap:round;stroke-linejoin:round"
   id="rect29"
   width="16.158953"
   height="16.158953"
   x="204.63596"
   y="-156.15903"
   rx="0"
   ry="0"
   transform="rotate(90)" /><rect
   style="fill:#22ae63;fill-opacity:1;stroke-width:4.84769;stroke-linecap:round;stroke-linejoin:round"
   id="rect30"
   width="16.158953"
   height="16.158953"
   x="220.79448"
   y="-156.15903"
   rx="0"
   ry="0"
   transform="rotate(90)" /><rect
   style="fill:#22ae63;fill-opacity:1;stroke-width:4.84769;stroke-linecap:round;stroke-linejoin:round"
   id="rect31"
   width="16.158953"
   height="16.158953"
   x="236.95354"
   y="-156.15903"
   rx="0"
   ry="0"
   transform="rotate(90)" /><rect
   style="fill:#22ae63;fill-opacity:1;stroke-width:4.84769;stroke-linecap:round;stroke-linejoin:round"
   id="rect32"
   width="16.158953"
   height="16.158953"
   x="253.11258"
   y="-156.15903"
   rx="0"
   ry="0"
   transform="rotate(90)" /><rect
   style="fill:#22ae63;fill-opacity:1;stroke-width:4.84769;stroke-linecap:round;stroke-linejoin:round"
   id="rect35"
   width="16.158953"
   height="16.158953"
   x="204.63596"
   y="-139.99998"
   rx="0"
   ry="0"
   transform="rotate(90)" /><rect
   style="fill:#22ae63;fill-opacity:1;stroke-width:4.84769;stroke-linecap:round;stroke-linejoin:round"
   id="rect36"
   width="16.158953"
   height="16.158953"
   x="220.79448"
   y="-139.99998"
   rx="0"
   ry="0"
   transform="rotate(90)" /><rect
   style="fill:#22ae63;fill-opacity:1;stroke-width:4.84769;stroke-linecap:round;stroke-linejoin:round"
   id="rect37"
   width="16.158953"
   height="16.158953"
   x="236.95354"
   y="-139.99998"
   rx="0"
   ry="0"
   transform="rotate(90)" /><rect
   style="fill:#22ae63;fill-opacity:1;stroke-width:4.84769;stroke-linecap:round;stroke-linejoin:round"
   id="rect38"
   width="16.158953"
   height="16.158953"
   x="253.11258"
   y="-139.99998"
   rx="0"
   ry="0"
   transform="rotate(90)" /><rect
   style="fill:#22ae63;fill-opacity:1;stroke-width:4.84769;stroke-linecap:round;stroke-linejoin:round"
   id="rect2"
   width="16.158953"
   height="16.158953"
   x="140.00021"
   y="-156.15903"
   rx="0"
   ry="0"
   transform="rotate(90)" /><rect
   style="fill:#22ae63;fill-opacity:1;stroke-width:4.84769;stroke-linecap:round;stroke-linejoin:round"
   id="rect3"
   width="16.158953"
   height="16.158953"
   x="156.1591"
   y="-156.15903"
   rx="0"
   ry="0"
   transform="rotate(90)" /><rect
   style="fill:#22ae63;fill-opacity:1;stroke-width:4.84769;stroke-linecap:round;stroke-linejoin:round"
   id="rect4"
   width="16.158953"
   height="16.158953"
   x="172.31795"
   y="-156.15903"
   rx="0"
   ry="0"
   transform="rotate(90)" /><rect
   style="fill:#22ae63;fill-opacity:1;stroke-width:4.84769;stroke-linecap:round;stroke-linejoin:round"
   id="rect5"
   width="16.158953"
   height="16.158953"
   x="188.47701"
   y="-156.15903"
   rx="0"
   ry="0"
   transform="rotate(90)" /><rect
   style="fill:#22ae63;fill-opacity:1;stroke-width:4.84769;stroke-linecap:round;stroke-linejoin:round"
   id="rect10"
   width="16.158953"
   height="16.158953"
   x="140.00021"
   y="-139.99998"
   rx="0"
   ry="0"
   transform="rotate(90)" /><rect
   style="fill:#22ae63;fill-opacity:1;stroke-width:4.84769;stroke-linecap:round;stroke-linejoin:round"
   id="rect14"
   width="16.158953"
   height="16.158953"
   x="156.1591"
   y="-139.99998"
   rx="0"
   ry="0"
   transform="rotate(90)" /><rect
   style="fill:#22ae63;fill-opacity:1;stroke-width:4.84769;stroke-linecap:round;stroke-linejoin:round"
   id="rect15"
   width="16.158953"
   height="16.158953"
   x="172.31795"
   y="-139.99998"
   rx="0"
   ry="0"
   transform="rotate(90)" /><rect
   style="fill:#22ae63;fill-opacity:1;stroke-width:4.84769;stroke-linecap:round;stroke-linejoin:round"
   id="rect16"
   width="16.158953"
   height="16.158953"
   x="188.47701"
   y="-139.99998"
   rx="0"
   ry="0"
   transform="rotate(90)" /><rect
   style="fill:#22ae63;fill-opacity:1;stroke-width:4.84769;stroke-linecap:round;stroke-linejoin:round"
   id="rect62"
   width="16.158953"
   height="16.158953"
   x="75.364128"
   y="-156.15903"
   rx="0"
   ry="0"
   transform="rotate(90)" /><rect
   style="fill:#22ae63;fill-opacity:1;stroke-width:4.84769;stroke-linecap:round;stroke-linejoin:round"
   id="rect63"
   width="16.158953"
   height="16.158953"
   x="91.522964"
   y="-156.15903"
   rx="0"
   ry="0"
   transform="rotate(90)" /><rect
   style="fill:#22ae63;fill-opacity:1;stroke-width:4.84769;stroke-linecap:round;stroke-linejoin:round"
   id="rect64"
   width="16.158953"
   height="16.158953"
   x="107.68201"
   y="-156.15903"
   rx="0"
   ry="0"
   transform="rotate(90)" /><rect
   style="fill:#22ae63;fill-opacity:1;stroke-width:4.84769;stroke-linecap:round;stroke-linejoin:round"
   id="rect65"
   width="16.158953"
   height="16.158953"
   x="123.84127"
   y="-156.15903"
   rx="0"
   ry="0"
   transform="rotate(90)" /><rect
   style="fill:#22ae63;fill-opacity:1;stroke-width:4.84769;stroke-linecap:round;stroke-linejoin:round"
   id="rect66"
   width="16.158953"
   height="16.158953"
   x="59.205441"
   y="-156.15903"
   rx="0"
   ry="0"
   transform="rotate(90)" /><rect
   style="fill:#22ae63;fill-opacity:1;stroke-width:4.84769;stroke-linecap:round;stroke-linejoin:round"
   id="rect67"
   width="16.158953"
   height="16.158953"
   x="75.364128"
   y="-139.99998"
   rx="0"
   ry="0"
   transform="rotate(90)" /><rect
   style="fill:#22ae63;fill-opacity:1;stroke-width:4.84769;stroke-linecap:round;stroke-linejoin:round"
   id="rect68"
   width="16.158953"
   height="16.158953"
   x="91.522964"
   y="-139.99998"
   rx="0"
   ry="0"
   transform="rotate(90)" /><rect
   style="fill:#22ae63;fill-opacity:1;stroke-width:4.84769;stroke-linecap:round;stroke-linejoin:round"
   id="rect69"
   width="16.158953"
   height="16.158953"
   x="107.68201"
   y="-139.99998"
   rx="0"
   ry="0"
   transform="rotate(90)" /><rect
   style="fill:#22ae63;fill-opacity:1;stroke-width:4.84769;stroke-linecap:round;stroke-linejoin:round"
   id="rect70"
   width="16.158953"
   height="16.158953"
   x="123.84127"
   y="-139.99998"
   rx="0"
   ry="0"
   transform="rotate(90)" /><rect
   style="fill:#22ae63;fill-opacity:1;stroke-width:4.84769;stroke-linecap:round;stroke-linejoin:round"
   id="rect71"
   width="16.158953"
   height="16.158953"
   x="59.205441"
   y="-139.99998"
   rx="0"
   ry="0"
   transform="rotate(90)" /><rect
   style="fill:#22ae63;fill-opacity:1;stroke-width:4.84769;stroke-linecap:round;stroke-linejoin:round"
   id="rect254"
   width="16.158953"
   height="16.158953"
   x="10.728597"
   y="-156.15903"
   rx="0"
   ry="0"
   transform="rotate(90)" /><rect
   style="fill:#22ae63;fill-opacity:1;stroke-width:4.84769;stroke-linecap:round;stroke-linejoin:round"
   id="rect255"
   width="16.158953"
   height="16.158953"
   x="26.887436"
   y="-156.15903"
   rx="0"
   ry="0"
   transform="rotate(90)" /><rect
   style="fill:#22ae63;fill-opacity:1;stroke-width:4.84769;stroke-linecap:round;stroke-linejoin:round"
   id="rect256"
   width="16.158953"
   height="16.158953"
   x="43.046486"
   y="-156.15903"
   rx="0"
   ry="0"
   transform="rotate(90)" /><rect
   style="fill:#22ae63;fill-opacity:1;stroke-width:4.84769;stroke-linecap:round;stroke-linejoin:round"
   id="rect258"
   width="16.158953"
   height="16.158953"
   x="10.728597"
   y="-139.99998"
   rx="0"
   ry="0"
   transform="rotate(90)" /><rect
   style="fill:#22ae63;fill-opacity:1;stroke-width:4.84769;stroke-linecap:round;stroke-linejoin:round"
   id="rect259"
   width="16.158953"
   height="16.158953"
   x="26.887436"
   y="-139.99998"
   rx="0"
   ry="0"
   transform="rotate(90)" /><rect
   style="fill:#22ae63;fill-opacity:1;stroke-width:4.84769;stroke-linecap:round;stroke-linejoin:round"
   id="rect260"
   width="16.158953"
   height="16.158953"
   x="43.046486"
   y="-139.99998"
   rx="0"
   ry="0"
   transform="rotate(90)" /><rect
   style="fill:#22ae63;fill-opacity:1;stroke-width:4.84769;stroke-linecap:round;stroke-linejoin:round"
   id="rect1"
   width="16.158953"
   height="16.158953"
   x="236.95381"
   y="-156.15927"
   rx="0"
   ry="0"
   transform="scale(1,-1)" /><rect
   style="fill:#22ae63;fill-opacity:1;stroke-width:4.84769;stroke-linecap:round;stroke-linejoin:round"
   id="rect6"
   width="16.158953"
   height="16.158953"
   x="253.1127"
   y="-156.15927"
   rx="0"
   ry="0"
   transform="scale(1,-1)" /><rect
   style="fill:#22ae63;fill-opacity:1;stroke-width:4.84769;stroke-linecap:round;stroke-linejoin:round"
   id="rect9"
   width="16.158953"
   height="16.158953"
   x="236.95381"
   y="-140.00023"
   rx="0"
   ry="0"
   transform="scale(1,-1)" /><rect
   style="fill:#22ae63;fill-opacity:1;stroke-width:4.84769;stroke-linecap:round;stroke-linejoin:round"
   id="rect11"
   width="16.158953"
   height="16.158953"
   x="253.1127"
   y="-140.00023"
   rx="0"
   ry="0"
   transform="scale(1,-1)" /><rect
   style="fill:#22ae63;fill-opacity:1;stroke-width:4.84769;stroke-linecap:round;stroke-linejoin:round"
   id="rect17"
   width="16.158953"
   height="16.158953"
   x="172.31772"
   y="-156.15927"
   rx="0"
   ry="0"
   transform="scale(1,-1)" /><rect
   style="fill:#22ae63;fill-opacity:1;stroke-width:4.84769;stroke-linecap:round;stroke-linejoin:round"
   id="rect18"
   width="16.158953"
   height="16.158953"
   x="188.47656"
   y="-156.15927"
   rx="0"
   ry="0"
   transform="scale(1,-1)" /><rect
   style="fill:#22ae63;fill-opacity:1;stroke-width:4.84769;stroke-linecap:round;stroke-linejoin:round"
   id="rect19"
   width="16.158953"
   height="16.158953"
   x="204.6356"
   y="-156.15927"
   rx="0"
   ry="0"
   transform="scale(1,-1)" /><rect
   style="fill:#22ae63;fill-opacity:1;stroke-width:4.84769;stroke-linecap:round;stroke-linejoin:round"
   id="rect20"
   width="16.158953"
   height="16.158953"
   x="220.79486"
   y="-156.15927"
   rx="0"
   ry="0"
   transform="scale(1,-1)" /><rect
   style="fill:#22ae63;fill-opacity:1;stroke-width:4.84769;stroke-linecap:round;stroke-linejoin:round"
   id="rect21"
   width="16.158953"
   height="16.158953"
   x="156.15903"
   y="-156.15927"
   rx="0"
   ry="0"
   transform="scale(1,-1)" /><rect
   style="fill:#22ae63;fill-opacity:1;stroke-width:4.84769;stroke-linecap:round;stroke-linejoin:round"
   id="rect22"
   width="16.158953"
   height="16.158953"
   x="172.31772"
   y="-140.00023"
   rx="0"
   ry="0"
   transform="scale(1,-1)" /><rect
   style="fill:#22ae63;fill-opacity:1;stroke-width:4.84769;stroke-linecap:round;stroke-linejoin:round"
   id="rect23"
   width="16.158953"
   height="16.158953"
   x="188.47656"
   y="-140.00023"
   rx="0"
   ry="0"
   transform="scale(1,-1)" /><rect
   style="fill:#22ae63;fill-opacity:1;stroke-width:4.84769;stroke-linecap:round;stroke-linejoin:round"
   id="rect24"
   width="16.158953"
   height="16.158953"
   x="204.6356"
   y="-140.00023"
   rx="0"
   ry="0"
   transform="scale(1,-1)" /><rect
   style="fill:#22ae63;fill-opacity:1;stroke-width:4.84769;stroke-linecap:round;stroke-linejoin:round"
   id="rect25"
   width="16.158953"
   height="16.158953"
   x="220.79486"
   y="-140.00023"
   rx="0"
   ry="0"
   transform="scale(1,-1)" /><rect
   style="fill:#22ae63;fill-opacity:1;stroke-width:4.84769;stroke-linecap:round;stroke-linejoin:round"
   id="rect26"
   width="16.158953"
   height="16.158953"
   x="156.15903"
   y="-140.00023"
   rx="0"
   ry="0"
   transform="scale(1,-1)" /></svg>
