<?xml version="1.0" encoding="UTF-8" standalone="no"?>
<svg
   width="280"
   height="280"
   viewBox="0 0 179.2 179.2"
   version="1.1"
   id="svg12"
   sodipodi:docname="special-colour.svg"
   inkscape:version="1.4 (1:1.4+202410161351+e7c3feb100)"
   inkscape:export-filename="special-colour.png"
   inkscape:export-xdpi="51.42857"
   inkscape:export-ydpi="51.42857"
   xml:space="preserve"
   xmlns:inkscape="http://www.inkscape.org/namespaces/inkscape"
   xmlns:sodipodi="http://sodipodi.sourceforge.net/DTD/sodipodi-0.dtd"
   xmlns="http://www.w3.org/2000/svg"
   xmlns:svg="http://www.w3.org/2000/svg"><sodipodi:namedview
     id="namedview12"
     pagecolor="#ffffff"
     bordercolor="#000000"
     borderopacity="0.25"
     inkscape:showpageshadow="2"
     inkscape:pageopacity="0.0"
     inkscape:pagecheckerboard="0"
     inkscape:deskcolor="#d1d1d1"
     inkscape:zoom="2.7366666"
     inkscape:cx="113.82461"
     inkscape:cy="117.29598"
     inkscape:window-width="1920"
     inkscape:window-height="1128"
     inkscape:window-x="0"
     inkscape:window-y="0"
     inkscape:window-maximized="1"
     inkscape:current-layer="svg12" /><defs
     id="defs9"><linearGradient
       id="e399c19f-b68f-429d-b176-18c2117ff73c"
       x1="-1032.172"
       x2="-1059.213"
       y1="145.312"
       y2="65.426003"
       gradientTransform="matrix(1,0,0,-1,1075,158)"
       gradientUnits="userSpaceOnUse"><stop
         offset="0"
         stop-color="#114a8b"
         id="stop1" /><stop
         offset="1"
         stop-color="#0669bc"
         id="stop2" /></linearGradient><linearGradient
       id="ac2a6fc2-ca48-4327-9a3c-d4dcc3256e15"
       x1="-1023.725"
       x2="-1029.98"
       y1="108.083"
       y2="105.968"
       gradientTransform="matrix(1,0,0,-1,1075,158)"
       gradientUnits="userSpaceOnUse"><stop
         offset="0"
         stop-opacity=".3"
         id="stop3" /><stop
         offset=".071"
         stop-opacity=".2"
         id="stop4" /><stop
         offset=".321"
         stop-opacity=".1"
         id="stop5" /><stop
         offset=".623"
         stop-opacity=".05"
         id="stop6" /><stop
         offset="1"
         stop-opacity="0"
         id="stop7" /></linearGradient><linearGradient
       id="a7fee970-a784-4bb1-af8d-63d18e5f7db9"
       x1="-1027.165"
       x2="-997.48199"
       y1="147.642"
       y2="68.560997"
       gradientTransform="matrix(1,0,0,-1,1075,158)"
       gradientUnits="userSpaceOnUse"><stop
         offset="0"
         stop-color="#3ccbf4"
         id="stop8" /><stop
         offset="1"
         stop-color="#2892df"
         id="stop9" /></linearGradient></defs><path
     id="path1"
     style="stroke-width:0.597015;fill:#ffffff"
     d="m 89.6,10.79375 c -0.0991,0 -0.197948,0.02444 -0.2875,0.07375 l -71.045,39.105 c -0.190687,0.104955 -0.30875,0.304829 -0.30875,0.5225 v 78.21 c 0,0.21791 0.118063,0.41742 0.30875,0.5225 l 71.045,39.105 c 0.179104,0.0985 0.395896,0.0985 0.575,0 l 71.045,-39.105 c 0.19105,-0.10508 0.30875,-0.30459 0.30875,-0.5225 v -78.21 c 0,-0.217671 -0.1177,-0.417545 -0.30875,-0.5225 L 89.8875,10.8675 C 89.797948,10.818185 89.699104,10.79375 89.6,10.79375 Z"
     sodipodi:nodetypes="sccssccccssccs" /><path
     fill-rule="evenodd"
     clip-rule="evenodd"
     d="m 89.312239,10.867985 c 0.179104,-0.09863 0.396418,-0.09863 0.575522,0 l 71.044779,39.104482 c 0.19105,0.104955 0.30926,0.305373 0.30926,0.523044 v 78.208959 c 0,0.21791 -0.11821,0.41791 -0.30926,0.52299 l -71.044779,39.10448 c -0.179104,0.0985 -0.396418,0.0985 -0.575522,0 L 18.267337,129.22746 c -0.190687,-0.10508 -0.309135,-0.30508 -0.309135,-0.52299 V 50.495511 c 0,-0.217671 0.118448,-0.418089 0.309135,-0.523044 z M 19.152232,50.848407 V 128.35164 L 89.6,167.12776 160.04777,128.35164 V 50.848407 L 89.6,12.072523 Z"
     fill="#160f26"
     id="path2"
     style="stroke-width:0.597015" /><path
     fill-rule="evenodd"
     clip-rule="evenodd"
     d="M 27.510442,126.37791 V 52.179989 L 89.6,11.988045 89.157015,11.066194 21.18483,49.259571 l -2.032598,0.65797 v 79.364839 l 1.635284,0.52956 68.369499,38.41672 L 89.6,167.30687 Z"
     fill="#160f26"
     id="path3"
     style="stroke-width:0.597015" /></svg>
